<?xml version="1.0" encoding="UTF-8"?>
<svg version="1.1" xmlns="http://www.w3.org/2000/svg" width="1024" height="1024">
<path d="M0 0 C337.92 0 675.84 0 1024 0 C1024 337.92 1024 675.84 1024 1024 C686.08 1024 348.16 1024 0 1024 C0 686.08 0 348.16 0 0 Z " fill="#FEFEFE" transform="translate(0,0)"/>
<path d="M0 0 C1.65864676 0.00561451 3.31729858 0.00987579 4.97595215 0.01286316 C9.28312596 0.02416631 13.58998276 0.05350295 17.89703369 0.0869751 C22.31542679 0.11799466 26.73387251 0.1314357 31.15234375 0.14648438 C39.77878923 0.17839103 48.40497988 0.22940464 57.03125 0.29296875 C57.59375 2.23046875 57.59375 2.23046875 58.03125 4.29296875 C56.14876314 6.17545561 52.89932885 5.43778196 50.39453125 5.45068359 C49.35262634 5.45830467 49.35262634 5.45830467 48.28967285 5.46607971 C46.7733386 5.47681322 45.2569882 5.4854216 43.7406311 5.49219894 C41.32464436 5.50399957 38.90883546 5.52346592 36.49291992 5.5453186 C29.6203424 5.60681963 22.74777365 5.66053381 15.875 5.69433594 C11.67206817 5.71556252 7.46944548 5.75110374 3.26669312 5.79509354 C1.67869776 5.80906188 0.09064753 5.81793155 -1.49740601 5.82114792 C-22.84710448 5.86887149 -43.18136903 9.03555414 -59.96875 23.29296875 C-60.75894531 23.95941406 -61.54914063 24.62585938 -62.36328125 25.3125 C-71.66565693 33.85420442 -77.54977576 44.94785882 -79.96875 57.29296875 C-80.195625 58.28296875 -80.4225 59.27296875 -80.65625 60.29296875 C-82.24664894 75.56079862 -79.44797039 93.63958929 -69.65478516 105.94384766 C-64.47501394 112.43020535 -64.47501394 112.43020535 -57.96875 117.29296875 C-57.96875 117.95296875 -57.96875 118.61296875 -57.96875 119.29296875 C-56.9478125 119.66421875 -56.9478125 119.66421875 -55.90625 120.04296875 C-52.96875 121.29296875 -52.96875 121.29296875 -49.90625 123.10546875 C-34.17867296 132.18950032 -18.36290206 133.76578341 -0.65625 133.7265625 C1.17024935 133.73113476 2.99674698 133.7364434 4.82324219 133.7424469 C8.62197944 133.7513141 12.42050564 133.74902336 16.21923828 133.73901367 C21.07918445 133.72745236 25.93841169 133.74787663 30.79826355 133.77693081 C34.55756208 133.79528192 38.31668721 133.79500389 42.07601929 133.78929329 C43.86853046 133.78914037 45.6610536 133.79516066 47.45352173 133.80758476 C49.95385161 133.82249621 52.45283669 133.81182259 54.953125 133.79467773 C55.68567001 133.8043457 56.41821503 133.81401367 57.17295837 133.82397461 C62.25135896 133.75121474 65.10481168 132.45912588 69.03125 129.29296875 C70.96634822 127.1145914 70.96634822 127.1145914 72.5078125 124.6796875 C73.0946582 123.79974121 73.68150391 122.91979492 74.28613281 122.01318359 C74.86202148 121.1155127 75.43791016 120.2178418 76.03125 119.29296875 C76.5684668 118.45588379 77.10568359 117.61879883 77.65917969 116.75634766 C79.2622344 114.21826011 80.83842011 111.66545036 82.40625 109.10546875 C82.9736792 108.18403076 83.5411084 107.26259277 84.12573242 106.31323242 C87.58268091 100.68889045 90.9982489 95.04159067 94.37768555 89.37036133 C98.77796924 82.00592297 103.29972417 74.71584356 107.80249023 67.41381836 C112.36317819 60.01420993 116.89531683 52.59799738 121.40625 45.16796875 C126.49756708 36.78901378 131.62420571 28.43507583 136.86230469 20.14697266 C138.09424715 18.19305222 139.31649675 16.23323597 140.5390625 14.2734375 C141.34848275 12.98798166 142.15836039 11.70281369 142.96875 10.41796875 C143.51752808 9.53322876 143.51752808 9.53322876 144.07739258 8.63061523 C145.89497325 5.77052982 147.15852461 4.20811901 150.03125 2.29296875 C153.40625 1.79296875 153.40625 1.79296875 157.03125 2.29296875 C160.75764697 6.24520796 163.64162364 10.60007807 166.46875 15.23046875 C166.88850098 15.90940186 167.30825195 16.58833496 167.74072266 17.2878418 C172.10023463 24.35734186 176.39529916 31.46671498 180.70336914 38.56762695 C184.54571955 44.88904785 188.44480633 51.17053981 192.40625 57.41796875 C193.13932373 58.57474121 193.13932373 58.57474121 193.88720703 59.75488281 C194.82479243 61.23393576 195.7624522 62.71294157 196.70019531 64.19189453 C198.73702959 67.40704417 200.76742496 70.62585283 202.78125 73.85546875 C203.41546875 74.86738281 204.0496875 75.87929688 204.703125 76.921875 C206.03125 79.29296875 206.03125 79.29296875 206.03125 81.29296875 C219.56125 81.29296875 233.09125 81.29296875 247.03125 81.29296875 C246.98484375 75.93691406 246.9384375 70.58085937 246.890625 65.0625 C246.87018438 61.6672983 246.85092854 58.27217257 246.8359375 54.87695312 C246.81203515 49.48901596 246.7837729 44.10135096 246.72949219 38.71362305 C246.68599892 34.36938687 246.66210548 30.02544259 246.65174103 25.68100548 C246.64435587 24.02439466 246.6299342 22.36779964 246.60832977 20.71131325 C246.57924848 18.3889794 246.57529581 16.06784826 246.57714844 13.74536133 C246.56276733 13.06203232 246.54838623 12.37870331 246.53356934 11.67466736 C246.57421083 6.95958416 247.7160268 4.60836084 251.03125 1.29296875 C254.21894148 -0.30087699 257.67227008 0.12773927 261.17431641 0.1159668 C262.43830513 0.10611 262.43830513 0.10611 263.72782898 0.09605408 C266.52949107 0.07627738 269.33109907 0.06464019 272.1328125 0.0546875 C273.092906 0.05061197 274.0529995 0.04653645 275.04218674 0.04233742 C280.13749731 0.02144429 285.23278081 0.00716448 290.328125 -0.00219727 C295.55504406 -0.01318475 300.78152828 -0.04748534 306.00829506 -0.08736897 C310.05450135 -0.11373272 314.10060796 -0.12190715 318.14689255 -0.12547874 C320.07071192 -0.13030488 321.99452807 -0.14180307 323.91826248 -0.16051674 C341.66920993 -0.3222647 358.70849744 1.17843674 372.59375 13.58203125 C381.53790735 22.84982587 385.44745929 32.98997137 385.3046875 45.7109375 C384.53023885 55.85621477 381.0329766 63.96350175 374.03125 71.29296875 C373.50789063 71.8446875 372.98453125 72.39640625 372.4453125 72.96484375 C358.36736016 86.28739377 340.1011458 86.73461519 321.953125 86.5859375 C319.93003659 86.58033207 317.90694406 86.57606646 315.8838501 86.57307434 C310.59682685 86.56170008 305.31005661 86.53229786 300.02313232 86.4989624 C294.6131126 86.46810039 289.20305141 86.45453474 283.79296875 86.43945312 C273.2056189 86.40742015 262.61845561 86.35631502 252.03125 86.29296875 C252.03569122 86.88543396 252.04013245 87.47789917 252.04470825 88.08831787 C252.08894201 94.25253895 252.11911664 100.41671497 252.14111328 106.58105469 C252.1511732 108.88185457 252.16482262 111.18264165 252.18212891 113.48339844 C252.20637735 116.78974565 252.21773323 120.09592387 252.2265625 123.40234375 C252.23688507 124.43164001 252.24720764 125.46093628 252.25784302 126.52142334 C252.25799408 127.48211731 252.25814514 128.44281128 252.25830078 129.43261719 C252.262742 130.27644958 252.26718323 131.12028198 252.27175903 131.98968506 C252.00572467 134.53741728 251.39480901 136.13406587 250.03125 138.29296875 C247.75876762 139.42920994 246.24822236 139.55743718 243.71875 139.66796875 C242.95949219 139.71695313 242.20023437 139.7659375 241.41796875 139.81640625 C236.70223427 138.78218625 234.21719571 134.72407512 231.70703125 130.8671875 C230.91246031 129.57578025 230.12500881 128.27997263 229.34375 126.98046875 C228.46629867 125.54938545 227.58869002 124.11839859 226.7109375 122.6875 C226.26717773 121.95869629 225.82341797 121.22989258 225.36621094 120.47900391 C223.25802337 117.02678893 221.11368294 113.59742832 218.96875 110.16796875 C218.35761353 109.18679077 218.35761353 109.18679077 217.73413086 108.18579102 C215.65349615 104.85239867 213.54902053 101.5373993 211.40234375 98.24609375 C210.77307983 97.27953857 210.77307983 97.27953857 210.13110352 96.29345703 C209.33232842 95.07037745 208.5296093 93.8498619 207.72241211 92.63232422 C205.03125 88.51268665 205.03125 88.51268665 205.03125 86.29296875 C182.92125 86.29296875 160.81125 86.29296875 138.03125 86.29296875 C137.70125 84.97296875 137.37125 83.65296875 137.03125 82.29296875 C158.15125 82.29296875 179.27125 82.29296875 201.03125 82.29296875 C197.29825514 75.49057287 197.29825514 75.49057287 193.3046875 68.890625 C192.83619385 68.15537598 192.3677002 67.42012695 191.88500977 66.66259766 C191.39701904 65.90124512 190.90902832 65.13989258 190.40625 64.35546875 C186.41138131 58.07684933 182.4617423 51.77557255 178.59375 45.41796875 C174.46367007 38.63737599 170.32211694 31.86415238 166.15625 25.10546875 C165.6207251 24.23229004 165.0852002 23.35911133 164.53344727 22.45947266 C161.53265665 17.59854008 158.40996751 12.8997441 155.03125 8.29296875 C151.94336696 8.59495901 150.4612479 8.79895575 148.38476562 11.18457031 C147.66836914 12.42158691 147.66836914 12.42158691 146.9375 13.68359375 C146.38916504 14.60954346 145.84083008 15.53549316 145.27587891 16.48950195 C144.70015137 17.497146 144.12442383 18.50479004 143.53125 19.54296875 C142.2795677 21.66721013 141.02694424 23.7908972 139.7734375 25.9140625 C139.1453418 26.98897949 138.51724609 28.06389648 137.87011719 29.17138672 C135.20510346 33.69539967 132.43583898 38.15127712 129.65625 42.60546875 C128.58018803 44.33950806 127.50467865 46.07389039 126.4296875 47.80859375 C125.88022461 48.69482422 125.33076172 49.58105469 124.76464844 50.49414062 C115.08673396 66.12056479 105.48748317 81.7938705 95.96582031 97.51586914 C91.95376085 104.13871008 87.91596336 110.74448621 83.84790039 117.33300781 C82.59600856 119.37277888 81.35561328 121.41963559 80.12475586 123.47216797 C75.377784 131.37888889 71.10107998 136.73812529 62.03125 139.29296875 C59.42037863 139.48527263 56.91655947 139.58689018 54.30786133 139.58349609 C53.55721909 139.59021332 52.80657684 139.59693054 52.03318787 139.60385132 C49.55981739 139.62278766 47.08671967 139.62675532 44.61328125 139.62890625 C42.87375278 139.63534438 41.13422537 139.64207348 39.3946991 139.64907837 C35.74398296 139.66104546 32.09336132 139.6647605 28.44262695 139.66357422 C23.81915594 139.66337271 19.19631132 139.69050109 14.57298756 139.72511864 C10.97358058 139.74764573 7.3743172 139.75140375 3.77484703 139.75035477 C2.07401083 139.75267887 0.37316864 139.76131663 -1.32759666 139.7770195 C-26.13114095 139.98431469 -49.08769985 134.42726106 -67.4609375 116.91796875 C-81.79970978 101.85501606 -86.48046179 84.17129808 -86.1796875 63.87109375 C-85.68309814 49.04698175 -79.63424367 36.35458928 -69.96875 25.29296875 C-69.47117187 24.70128906 -68.97359375 24.10960937 -68.4609375 23.5 C-50.97811473 4.3040363 -24.64957816 -0.25008548 0 0 Z " fill="#FDFDFD" transform="translate(177.96875,418.70703125)"/>
<path d="M0 0 C0.86581696 -0.00554901 1.73163391 -0.01109802 2.62368774 -0.01681519 C5.4841464 -0.02861637 8.34302124 -0.00431411 11.20336914 0.02148438 C13.2029259 0.02319681 15.20248491 0.02312844 17.20204163 0.0213623 C21.39777049 0.02301634 25.59296565 0.04171608 29.78857422 0.07324219 C35.13106795 0.11268885 40.47285537 0.11731452 45.81546688 0.10977936 C49.95000011 0.10668659 54.0843787 0.1189153 58.21887398 0.13591003 C60.18617339 0.14288036 62.15349035 0.14607192 64.12080193 0.1452179 C81.82354189 0.15688427 97.75222367 0.90576799 111.26196289 13.55664062 C119.18145109 21.55198599 122.48445678 30.84382673 122.73852539 42.11523438 C122.28397896 56.45544128 118.02178341 66.83849673 107.62524414 76.75976562 C96.93467709 85.29425192 84.63703741 86.86423821 71.38305664 87.02929688 C70.39979904 87.04866302 69.41654144 87.06802917 68.40348816 87.08798218 C65.30691819 87.14708014 62.2103096 87.19388039 59.11352539 87.24023438 C56.99567191 87.27847857 54.87783292 87.31753389 52.76000977 87.35742188 C47.6071346 87.45272297 42.45418687 87.53700681 37.30102539 87.61523438 C52.25184885 95.42799066 67.24978805 103.12491269 82.35644531 110.63208008 C89.07391025 113.97782258 95.74167569 117.39691756 102.36352539 120.92773438 C108.69750657 124.28154473 115.05706744 127.57678095 121.48852539 130.74023438 C122.25495361 131.13122314 123.02138184 131.52221191 123.81103516 131.92504883 C128.88446903 134.37669719 132.67808351 135.70651012 138.30102539 134.61523438 C140.88905447 132.30502071 142.54036555 129.58273434 144.30102539 126.61523438 C144.76589355 125.86564453 145.23076172 125.11605469 145.7097168 124.34375 C147.21501223 121.87124416 148.66745197 119.37280935 150.11352539 116.86523438 C154.877872 108.69917918 159.72527472 100.58921711 164.6517334 92.52032471 C170.32173458 83.2332538 175.91526457 73.90989796 181.36352539 64.49023438 C186.90019919 54.92290034 192.63071484 45.48779336 198.45458984 36.09277344 C201.62502428 30.97568994 204.77304066 25.84978539 207.84008789 20.66992188 C208.65775635 19.28981934 208.65775635 19.28981934 209.49194336 17.88183594 C210.49878255 16.17591674 211.50076859 14.46711958 212.49682617 12.75488281 C216.86217022 5.36203778 216.86217022 5.36203778 220.30102539 2.61523438 C223.67602539 1.92773438 223.67602539 1.92773438 227.30102539 2.61523438 C232.40062997 7.02616277 235.71177406 13.29601871 239.05102539 19.05273438 C240.10579847 20.84121279 241.16180403 22.62896488 242.21899414 24.41601562 C242.73896973 25.29725098 243.25894531 26.17848633 243.79467773 27.08642578 C245.93051817 30.67200686 248.1380002 34.20984391 250.36352539 37.74023438 C255.33284548 45.63915362 260.19427479 53.60194522 265.05200195 61.56982422 C266.79422199 64.42289683 268.54699548 67.26941034 270.30102539 70.11523438 C272.9675163 74.44147983 275.62031527 78.77578286 278.265625 83.11499023 C284.90304373 93.9988863 291.62831977 104.8245329 298.45336914 115.59179688 C298.98905518 116.43750244 299.52474121 117.28320801 300.07666016 118.15454102 C301.11338958 119.79010789 302.15155022 121.42476878 303.19140625 123.05834961 C304.57294307 125.23693587 305.93982584 127.4238977 307.30102539 129.61523438 C307.72158203 130.27765137 308.14213867 130.94006836 308.57543945 131.62255859 C309.56457212 133.24017616 310.44380106 134.92401101 311.30102539 136.61523438 C310.97102539 137.60523438 310.64102539 138.59523438 310.30102539 139.61523438 C307.56974179 139.27184139 306.53110743 138.89115292 304.73974609 136.74291992 C303.68243319 135.00211573 302.62839468 133.25932043 301.57684326 131.51502991 C300.2905866 129.41051255 298.9810146 127.32002893 297.64610291 125.24603271 C293.89532218 119.32980307 290.89502299 113.87651311 288.58325195 107.21508789 C285.47828061 99.23385883 281.95125746 91.17353742 274.30102539 86.61523438 C259.57851846 81.39305784 241.59689013 83.8765994 226.31396484 84.69262695 C220.33650467 84.981194 214.35573492 85.10737088 208.37329102 85.24804688 C196.67380154 85.54671506 184.98909157 86.0232345 173.30102539 86.61523438 C173.00244629 87.38150146 172.70386719 88.14776855 172.39624023 88.93725586 C167.4733694 100.97447615 159.38780027 112.28223261 152.6550293 123.37451172 C151.48650104 125.30829324 150.33400877 127.25025571 149.18774414 129.19726562 C143.68805454 138.30650759 143.68805454 138.30650759 138.30102539 140.61523438 C131.03832342 141.38394373 126.32736038 139.19556815 119.92602539 135.92773438 C118.93505859 135.43732666 117.9440918 134.94691895 116.9230957 134.44165039 C114.80433891 133.39037021 112.68918739 132.33179779 110.57739258 131.26660156 C107.28751954 129.6084271 103.98733551 127.97263747 100.68383789 126.34179688 C90.29195011 121.19787363 79.95811397 115.9608017 69.7265625 110.50488281 C64.91490742 107.95253747 60.06549992 105.48393115 55.18774414 103.06054688 C54.56403931 102.75046188 53.94033447 102.44037689 53.29772949 102.12089539 C50.19926153 100.58204041 47.09801472 99.04911863 43.99291992 97.52368164 C30.71781862 90.95369831 30.71781862 90.95369831 26.30102539 87.61523438 C26.10302734 84.96557617 26.10302734 84.96557617 26.30102539 82.61523438 C26.89634064 82.60714752 27.49165588 82.59906067 28.10501099 82.59072876 C34.36830009 82.50387014 40.63130176 82.40434414 46.89428711 82.29785156 C49.22366462 82.25984983 51.55309508 82.22494992 53.88256836 82.19335938 C83.35908911 82.75836171 83.35908911 82.75836171 108.36352539 68.99023438 C116.18018357 58.61431502 117.64568509 47.14894313 116.30102539 34.61523438 C115.39471875 30.97160565 114.13797176 27.88091681 112.30102539 24.61523438 C111.72352539 23.56335938 111.14602539 22.51148438 110.55102539 21.42773438 C103.54250019 12.66707788 95.41823127 8.11836375 84.30102539 6.61523438 C81.25816856 6.48012588 78.21997992 6.48865405 75.17456055 6.50170898 C74.2763559 6.50156296 73.37815125 6.50141693 72.45272827 6.50126648 C69.49848982 6.50196039 66.54431526 6.50972833 63.59008789 6.51757812 C61.53600092 6.51944416 59.4819135 6.52086719 57.42782593 6.52186584 C52.0323157 6.52567643 46.63683256 6.53549425 41.24133301 6.54656982 C35.73128628 6.55681532 30.22123516 6.56137019 24.71118164 6.56640625 C13.90778435 6.57711785 3.10440713 6.59417673 -7.69897461 6.61523438 C-8.96936077 9.1560067 -8.83800408 10.94560371 -8.85719299 13.79104614 C-8.87187622 15.43593018 -8.87187622 15.43593018 -8.88685608 17.11404419 C-8.89261154 18.32244965 -8.898367 19.5308551 -8.90429688 20.77587891 C-8.91419647 22.04413513 -8.92409607 23.31239136 -8.93429565 24.61907959 C-8.96137282 28.10230087 -8.98236712 31.58553574 -9.00229764 35.06880426 C-9.02413988 38.70701745 -9.05153717 42.34518861 -9.07835388 45.98336792 C-9.12830464 52.87522558 -9.17323461 59.76710653 -9.21637625 66.65900981 C-9.26572828 74.50415832 -9.32065394 82.34926467 -9.37605584 90.19437242 C-9.48991246 106.33462089 -9.59674346 122.47490799 -9.69897461 138.61523438 C-10.68897461 138.94523438 -11.67897461 139.27523437 -12.69897461 139.61523438 C-14.38982391 137.92438507 -13.83960834 135.79681469 -13.85287476 133.47943115 C-13.86147522 132.3661998 -13.87007568 131.25296844 -13.87893677 130.10600281 C-13.88319672 128.87380508 -13.88745667 127.64160736 -13.8918457 126.37207031 C-13.90002319 125.08273087 -13.90820068 123.79339142 -13.91662598 122.46498108 C-13.94288512 118.17654522 -13.9581596 113.88809941 -13.97241211 109.59960938 C-13.9777706 108.12468713 -13.9831481 106.64976495 -13.98854446 105.17484283 C-14.01018082 99.03957847 -14.02891743 92.90431678 -14.04016685 86.7690239 C-14.05640387 77.97058035 -14.08956634 69.17257863 -14.1465677 60.37430167 C-14.18525923 54.1916642 -14.2047987 48.00914492 -14.21008742 41.82638955 C-14.21374267 38.13218484 -14.22578064 34.43845094 -14.25819016 30.74437714 C-14.29384314 26.62130958 -14.28990203 22.49919154 -14.2824707 18.37597656 C-14.29887604 17.15187576 -14.31528137 15.92777496 -14.33218384 14.6665802 C-14.27216168 6.55265258 -14.27216168 6.55265258 -11.70619202 2.35614014 C-7.66207838 0.01496563 -4.59977704 -0.0752306 0 0 Z " fill="#101010" transform="translate(587.698974609375,418.384765625)"/>
<path d="M0 0 C1.65864676 0.00561451 3.31729858 0.00987579 4.97595215 0.01286316 C9.28312596 0.02416631 13.58998276 0.05350295 17.89703369 0.0869751 C22.31542679 0.11799466 26.73387251 0.1314357 31.15234375 0.14648438 C39.77878923 0.17839103 48.40497988 0.22940464 57.03125 0.29296875 C57.59375 2.23046875 57.59375 2.23046875 58.03125 4.29296875 C56.14876314 6.17545561 52.89932885 5.43778196 50.39453125 5.45068359 C49.35262634 5.45830467 49.35262634 5.45830467 48.28967285 5.46607971 C46.7733386 5.47681322 45.2569882 5.4854216 43.7406311 5.49219894 C41.32464436 5.50399957 38.90883546 5.52346592 36.49291992 5.5453186 C29.6203424 5.60681963 22.74777365 5.66053381 15.875 5.69433594 C11.67206817 5.71556252 7.46944548 5.75110374 3.26669312 5.79509354 C1.67869776 5.80906188 0.09064753 5.81793155 -1.49740601 5.82114792 C-22.84710448 5.86887149 -43.18136903 9.03555414 -59.96875 23.29296875 C-60.75894531 23.95941406 -61.54914063 24.62585938 -62.36328125 25.3125 C-71.66565693 33.85420442 -77.54977576 44.94785882 -79.96875 57.29296875 C-80.195625 58.28296875 -80.4225 59.27296875 -80.65625 60.29296875 C-82.24664894 75.56079862 -79.44797039 93.63958929 -69.65478516 105.94384766 C-64.47501394 112.43020535 -64.47501394 112.43020535 -57.96875 117.29296875 C-57.96875 117.95296875 -57.96875 118.61296875 -57.96875 119.29296875 C-56.9478125 119.66421875 -56.9478125 119.66421875 -55.90625 120.04296875 C-52.96875 121.29296875 -52.96875 121.29296875 -49.90625 123.10546875 C-34.17867296 132.18950032 -18.36290206 133.76578341 -0.65625 133.7265625 C1.17024935 133.73113476 2.99674698 133.7364434 4.82324219 133.7424469 C8.62197944 133.7513141 12.42050564 133.74902336 16.21923828 133.73901367 C21.07918445 133.72745236 25.93841169 133.74787663 30.79826355 133.77693081 C34.55756208 133.79528192 38.31668721 133.79500389 42.07601929 133.78929329 C43.86853046 133.78914037 45.6610536 133.79516066 47.45352173 133.80758476 C49.95385161 133.82249621 52.45283669 133.81182259 54.953125 133.79467773 C55.68567001 133.8043457 56.41821503 133.81401367 57.17295837 133.82397461 C62.25135896 133.75121474 65.10481168 132.45912588 69.03125 129.29296875 C70.96634822 127.1145914 70.96634822 127.1145914 72.5078125 124.6796875 C73.0946582 123.79974121 73.68150391 122.91979492 74.28613281 122.01318359 C74.86202148 121.1155127 75.43791016 120.2178418 76.03125 119.29296875 C76.5684668 118.45588379 77.10568359 117.61879883 77.65917969 116.75634766 C79.2622344 114.21826011 80.83842011 111.66545036 82.40625 109.10546875 C82.9736792 108.18403076 83.5411084 107.26259277 84.12573242 106.31323242 C87.58268091 100.68889045 90.9982489 95.04159067 94.37768555 89.37036133 C98.77796924 82.00592297 103.29972417 74.71584356 107.80249023 67.41381836 C112.36317819 60.01420993 116.89531683 52.59799738 121.40625 45.16796875 C126.49756708 36.78901378 131.62420571 28.43507583 136.86230469 20.14697266 C138.09424715 18.19305222 139.31649675 16.23323597 140.5390625 14.2734375 C141.34848275 12.98798166 142.15836039 11.70281369 142.96875 10.41796875 C143.51752808 9.53322876 143.51752808 9.53322876 144.07739258 8.63061523 C145.89497325 5.77052982 147.15852461 4.20811901 150.03125 2.29296875 C153.40625 1.79296875 153.40625 1.79296875 157.03125 2.29296875 C160.75764697 6.24520796 163.64162364 10.60007807 166.46875 15.23046875 C166.88850098 15.90940186 167.30825195 16.58833496 167.74072266 17.2878418 C172.10023463 24.35734186 176.39529916 31.46671498 180.70336914 38.56762695 C184.54571955 44.88904785 188.44480633 51.17053981 192.40625 57.41796875 C193.13932373 58.57474121 193.13932373 58.57474121 193.88720703 59.75488281 C194.82479243 61.23393576 195.7624522 62.71294157 196.70019531 64.19189453 C198.73702959 67.40704417 200.76742496 70.62585283 202.78125 73.85546875 C203.41546875 74.86738281 204.0496875 75.87929688 204.703125 76.921875 C206.03125 79.29296875 206.03125 79.29296875 206.03125 81.29296875 C219.56125 81.29296875 233.09125 81.29296875 247.03125 81.29296875 C246.98484375 75.93691406 246.9384375 70.58085937 246.890625 65.0625 C246.87018438 61.6672983 246.85092854 58.27217257 246.8359375 54.87695312 C246.81203515 49.48901596 246.7837729 44.10135096 246.72949219 38.71362305 C246.68599892 34.36938687 246.66210548 30.02544259 246.65174103 25.68100548 C246.64435587 24.02439466 246.6299342 22.36779964 246.60832977 20.71131325 C246.57924848 18.3889794 246.57529581 16.06784826 246.57714844 13.74536133 C246.56276733 13.06203232 246.54838623 12.37870331 246.53356934 11.67466736 C246.57421083 6.95958416 247.7160268 4.60836084 251.03125 1.29296875 C254.21894148 -0.30087699 257.67227008 0.12773927 261.17431641 0.1159668 C262.43830513 0.10611 262.43830513 0.10611 263.72782898 0.09605408 C266.52949107 0.07627738 269.33109907 0.06464019 272.1328125 0.0546875 C273.092906 0.05061197 274.0529995 0.04653645 275.04218674 0.04233742 C280.13749731 0.02144429 285.23278081 0.00716448 290.328125 -0.00219727 C295.55504406 -0.01318475 300.78152828 -0.04748534 306.00829506 -0.08736897 C310.05450135 -0.11373272 314.10060796 -0.12190715 318.14689255 -0.12547874 C320.07071192 -0.13030488 321.99452807 -0.14180307 323.91826248 -0.16051674 C341.66920993 -0.3222647 358.70849744 1.17843674 372.59375 13.58203125 C381.53790735 22.84982587 385.44745929 32.98997137 385.3046875 45.7109375 C384.53023885 55.85621477 381.0329766 63.96350175 374.03125 71.29296875 C373.50789063 71.8446875 372.98453125 72.39640625 372.4453125 72.96484375 C358.36736016 86.28739377 340.1011458 86.73461519 321.953125 86.5859375 C319.93003659 86.58033207 317.90694406 86.57606646 315.8838501 86.57307434 C310.59682685 86.56170008 305.31005661 86.53229786 300.02313232 86.4989624 C294.6131126 86.46810039 289.20305141 86.45453474 283.79296875 86.43945312 C273.2056189 86.40742015 262.61845561 86.35631502 252.03125 86.29296875 C252.03569122 86.88543396 252.04013245 87.47789917 252.04470825 88.08831787 C252.08894201 94.25253895 252.11911664 100.41671497 252.14111328 106.58105469 C252.1511732 108.88185457 252.16482262 111.18264165 252.18212891 113.48339844 C252.20637735 116.78974565 252.21773323 120.09592387 252.2265625 123.40234375 C252.23688507 124.43164001 252.24720764 125.46093628 252.25784302 126.52142334 C252.25799408 127.48211731 252.25814514 128.44281128 252.25830078 129.43261719 C252.262742 130.27644958 252.26718323 131.12028198 252.27175903 131.98968506 C252.00572467 134.53741728 251.39480901 136.13406587 250.03125 138.29296875 C247.75876762 139.42920994 246.24822236 139.55743718 243.71875 139.66796875 C242.95949219 139.71695313 242.20023437 139.7659375 241.41796875 139.81640625 C236.70223427 138.78218625 234.21719571 134.72407512 231.70703125 130.8671875 C230.91246031 129.57578025 230.12500881 128.27997263 229.34375 126.98046875 C228.46629867 125.54938545 227.58869002 124.11839859 226.7109375 122.6875 C226.26717773 121.95869629 225.82341797 121.22989258 225.36621094 120.47900391 C223.25802337 117.02678893 221.11368294 113.59742832 218.96875 110.16796875 C218.35761353 109.18679077 218.35761353 109.18679077 217.73413086 108.18579102 C215.65349615 104.85239867 213.54902053 101.5373993 211.40234375 98.24609375 C210.77307983 97.27953857 210.77307983 97.27953857 210.13110352 96.29345703 C209.33232842 95.07037745 208.5296093 93.8498619 207.72241211 92.63232422 C205.03125 88.51268665 205.03125 88.51268665 205.03125 86.29296875 C182.92125 86.29296875 160.81125 86.29296875 138.03125 86.29296875 C137.70125 84.97296875 137.37125 83.65296875 137.03125 82.29296875 C158.15125 82.29296875 179.27125 82.29296875 201.03125 82.29296875 C197.29825514 75.49057287 197.29825514 75.49057287 193.3046875 68.890625 C192.83619385 68.15537598 192.3677002 67.42012695 191.88500977 66.66259766 C191.39701904 65.90124512 190.90902832 65.13989258 190.40625 64.35546875 C186.41138131 58.07684933 182.4617423 51.77557255 178.59375 45.41796875 C174.46367007 38.63737599 170.32211694 31.86415238 166.15625 25.10546875 C165.6207251 24.23229004 165.0852002 23.35911133 164.53344727 22.45947266 C161.53265665 17.59854008 158.40996751 12.8997441 155.03125 8.29296875 C151.94336696 8.59495901 150.4612479 8.79895575 148.38476562 11.18457031 C147.66836914 12.42158691 147.66836914 12.42158691 146.9375 13.68359375 C146.38916504 14.60954346 145.84083008 15.53549316 145.27587891 16.48950195 C144.70015137 17.497146 144.12442383 18.50479004 143.53125 19.54296875 C142.2795677 21.66721013 141.02694424 23.7908972 139.7734375 25.9140625 C139.1453418 26.98897949 138.51724609 28.06389648 137.87011719 29.17138672 C135.20510346 33.69539967 132.43583898 38.15127712 129.65625 42.60546875 C128.58018803 44.33950806 127.50467865 46.07389039 126.4296875 47.80859375 C125.88022461 48.69482422 125.33076172 49.58105469 124.76464844 50.49414062 C115.08673396 66.12056479 105.48748317 81.7938705 95.96582031 97.51586914 C91.95376085 104.13871008 87.91596336 110.74448621 83.84790039 117.33300781 C82.59600856 119.37277888 81.35561328 121.41963559 80.12475586 123.47216797 C75.377784 131.37888889 71.10107998 136.73812529 62.03125 139.29296875 C59.42037863 139.48527263 56.91655947 139.58689018 54.30786133 139.58349609 C53.55721909 139.59021332 52.80657684 139.59693054 52.03318787 139.60385132 C49.55981739 139.62278766 47.08671967 139.62675532 44.61328125 139.62890625 C42.87375278 139.63534438 41.13422537 139.64207348 39.3946991 139.64907837 C35.74398296 139.66104546 32.09336132 139.6647605 28.44262695 139.66357422 C23.81915594 139.66337271 19.19631132 139.69050109 14.57298756 139.72511864 C10.97358058 139.74764573 7.3743172 139.75140375 3.77484703 139.75035477 C2.07401083 139.75267887 0.37316864 139.76131663 -1.32759666 139.7770195 C-26.13114095 139.98431469 -49.08769985 134.42726106 -67.4609375 116.91796875 C-81.79970978 101.85501606 -86.48046179 84.17129808 -86.1796875 63.87109375 C-85.68309814 49.04698175 -79.63424367 36.35458928 -69.96875 25.29296875 C-69.47117187 24.70128906 -68.97359375 24.10960937 -68.4609375 23.5 C-50.97811473 4.3040363 -24.64957816 -0.25008548 0 0 Z M252.03125 7.29296875 C251.84359227 9.70223109 251.77924019 11.99545272 251.80419922 14.40478516 C251.80390717 15.136595 251.80361511 15.86840485 251.80331421 16.62239075 C251.80470999 19.04655729 251.8202826 21.47041826 251.8359375 23.89453125 C251.83966675 25.57318962 251.84251414 27.25185016 251.84451294 28.93051147 C251.85215631 33.35288482 251.87181078 37.7751272 251.8939209 42.19744873 C251.91436421 46.70843738 251.92351141 51.21944715 251.93359375 55.73046875 C251.95505606 64.58469302 251.98920045 73.43882 252.03125 82.29296875 C262.46364213 82.33958133 272.89600895 82.37498349 283.32848454 82.39659309 C288.17418697 82.40697151 293.01981747 82.42102035 297.86547852 82.44384766 C302.55338167 82.46579024 307.2412162 82.47758188 311.92916679 82.48272324 C313.70586665 82.48638097 315.48256333 82.49352186 317.25923347 82.50442886 C344.50940715 82.68700114 344.50940715 82.68700114 368.03125 70.29296875 C368.6603125 69.75671875 369.289375 69.22046875 369.9375 68.66796875 C376.20681646 62.92995029 379.61870303 55.66284246 380.26953125 47.19140625 C380.50926632 35.81029929 378.17846926 26.76169529 370.1640625 18.328125 C356.21504139 4.99961195 340.02387522 4.98318531 321.875 5.02734375 C319.9211014 5.02599493 317.96720312 5.02405259 316.01330566 5.02154541 C311.93852511 5.01860994 307.86383274 5.02284457 303.7890625 5.03222656 C298.55887684 5.04368102 293.32889511 5.03701401 288.09871674 5.02508163 C284.07367398 5.01787203 280.04868005 5.02014576 276.02363586 5.02533722 C274.09385657 5.02667308 272.16407286 5.02502823 270.23429871 5.02037811 C267.54865653 5.01532108 264.86335132 5.02300861 262.17773438 5.03417969 C260.97778839 5.02810699 260.97778839 5.02810699 259.75360107 5.02191162 C255.42738215 4.89142966 255.42738215 4.89142966 252.03125 7.29296875 Z " fill="#0E0E0E" transform="translate(177.96875,418.70703125)"/>
<path d="M0 0 C5.04445441 1.03599 6.24219594 3.70904667 9.03125 7.88671875 C11.53126636 11.84011764 13.94578003 15.84052049 16.32885742 19.86499023 C19.29493571 24.86600025 22.37541156 29.78426733 25.5 34.6875 C30.43692768 42.4601858 35.28350576 50.28636637 40.07983398 58.14639282 C40.85838871 59.42124978 41.63849432 60.69516094 42.42016602 61.96810913 C43.51894866 63.75861261 44.61182516 65.55258496 45.703125 67.34765625 C46.65687012 68.91012085 46.65687012 68.91012085 47.62988281 70.50415039 C49 73 49 73 49 75 C17.98 75 -13.04 75 -45 75 C-43.43135983 70.29407949 -42.20140847 67.408112 -39.625 63.375 C-38.89585392 62.21825471 -38.16807631 61.06064608 -37.44140625 59.90234375 C-37.04711426 59.27569824 -36.65282227 58.64905273 -36.24658203 58.00341797 C-33.9697295 54.34422254 -31.77177397 50.63773616 -29.5625 46.9375 C-27.3767878 43.29059342 -25.18836017 39.64531811 -23 36 C-22.66107727 35.43492737 -22.32215454 34.86985474 -21.97296143 34.28765869 C-19.73675585 30.55988969 -17.49549095 26.83522855 -15.24874878 23.11380005 C-14.50853469 21.88611368 -13.76982781 20.6575171 -13.03274536 19.427948 C-9.00010446 12.70319799 -4.90474929 6.13385195 0 0 Z " fill="#FBFBFB" transform="translate(810,426)"/>
<path d="M0 0 C0.84309723 -0.00700928 1.68619446 -0.01401855 2.55484009 -0.02124023 C5.34052588 -0.03883081 8.12519256 -0.02718222 10.91088867 -0.01367188 C12.86081638 -0.01636925 14.81074277 -0.02025371 16.76066589 -0.02526855 C20.8537574 -0.03116736 24.94649989 -0.02259851 29.03955078 -0.00390625 C34.24293503 0.01871716 39.44548632 0.00586895 44.648839 -0.01819611 C48.68222598 -0.0327866 52.71542218 -0.02798524 56.74881554 -0.01768494 C58.66423329 -0.01504534 60.57966926 -0.0181881 62.49506569 -0.02760315 C80.18907138 -0.09540922 97.24749805 1.4511885 111.07885742 13.80664062 C120.02301477 23.07443525 123.93256671 33.21458075 123.78979492 45.93554688 C123.01534628 56.08082415 119.51808403 64.18811113 112.51635742 71.51757812 C111.99299805 72.06929688 111.46963867 72.62101562 110.93041992 73.18945312 C96.79048768 86.5706573 78.43945261 86.95813897 60.21948242 86.81054688 C58.17397373 86.80494161 56.12846096 86.80067591 54.08294678 86.79768372 C48.73674111 86.78630821 43.39078556 86.75690487 38.04467773 86.72357178 C32.57433453 86.69271249 27.10395035 86.67914469 21.63354492 86.6640625 C10.92770674 86.63202732 0.22205299 86.58092062 -10.48364258 86.51757812 C-10.81364258 87.17757812 -11.14364258 87.83757812 -11.48364258 88.51757812 C-11.15364258 88.84757812 -10.82364258 89.17757812 -10.48364258 89.51757812 C-10.48364258 90.17757812 -10.48364258 90.83757812 -10.48364258 91.51757812 C-11.47364258 91.18757813 -12.46364258 90.85757813 -13.48364258 90.51757812 C-13.81364258 89.19757813 -14.14364258 87.87757813 -14.48364258 86.51757812 C-32.79864258 86.02257812 -32.79864258 86.02257812 -51.48364258 85.51757812 C-51.48364258 84.52757812 -51.48364258 83.53757812 -51.48364258 82.51757812 C-38.94364258 82.51757812 -26.40364258 82.51757812 -13.48364258 82.51757812 C-13.54165039 76.93335938 -13.5996582 71.34914063 -13.65942383 65.59570312 C-13.68496987 62.05921577 -13.70903916 58.52284207 -13.7277832 54.98632812 C-13.75768004 49.37215569 -13.79305731 43.75839074 -13.86083984 38.14453125 C-13.91514332 33.61873662 -13.94505956 29.09337889 -13.95802879 24.56728363 C-13.96727173 22.84004588 -13.9853213 21.11283222 -14.01229286 19.38578033 C-14.04856284 16.96727222 -14.05358906 14.550572 -14.05126953 12.13183594 C-14.06924591 11.41685944 -14.08722229 10.70188293 -14.10574341 9.96524048 C-14.06969841 6.49462194 -13.7005248 4.78186496 -11.47839355 2.07403564 C-7.61565555 0.0664605 -4.25218737 -0.04363138 0 0 Z M-9.48364258 7.51757812 C-9.67130031 9.92684047 -9.73565238 12.2200621 -9.71069336 14.62939453 C-9.71098541 15.36120438 -9.71127747 16.09301422 -9.71157837 16.84700012 C-9.71018259 19.27116667 -9.69460998 21.69502763 -9.67895508 24.11914062 C-9.67522582 25.79779899 -9.67237844 27.47645953 -9.67037964 29.15512085 C-9.66273627 33.5774942 -9.64308179 37.99973657 -9.62097168 42.42205811 C-9.60052837 46.93304675 -9.59138117 51.44405652 -9.58129883 55.95507812 C-9.55983652 64.80930239 -9.52569213 73.66342938 -9.48364258 82.51757812 C0.94874956 82.5641907 11.38111637 82.59959287 21.81359196 82.62120247 C26.65929439 82.63158089 31.50492489 82.64562973 36.35058594 82.66845703 C41.03848909 82.69039962 45.72632362 82.70219126 50.41427422 82.70733261 C52.19097408 82.71099034 53.96767075 82.71813124 55.7443409 82.72903824 C82.99451457 82.91161052 82.99451457 82.91161052 106.51635742 70.51757812 C107.14541992 69.98132813 107.77448242 69.44507813 108.42260742 68.89257812 C114.69192388 63.15455967 118.10381045 55.88745183 118.75463867 47.41601562 C118.99437374 36.03490867 116.66357668 26.98630467 108.64916992 18.55273438 C94.70014881 5.22422132 78.50898264 5.20779469 60.36010742 5.25195312 C58.40620882 5.25060431 56.45231055 5.24866197 54.49841309 5.24615479 C50.42363254 5.24321931 46.34894017 5.24745394 42.27416992 5.25683594 C37.04398426 5.26829039 31.81400253 5.26162339 26.58382416 5.24969101 C22.5587814 5.2424814 18.53378747 5.24475513 14.50874329 5.24994659 C12.57896399 5.25128245 10.64918029 5.24963761 8.71940613 5.24498749 C6.03376395 5.23993045 3.34845874 5.24761798 0.6628418 5.25878906 C-0.53710419 5.25271637 -0.53710419 5.25271637 -1.7612915 5.246521 C-6.08751043 5.11603903 -6.08751043 5.11603903 -9.48364258 7.51757812 Z " fill="#060606" transform="translate(439.483642578125,418.482421875)"/>
<path d="M0 0 C1.65864676 0.00561451 3.31729858 0.00987579 4.97595215 0.01286316 C9.28312596 0.02416631 13.58998276 0.05350295 17.89703369 0.0869751 C22.31542679 0.11799466 26.73387251 0.1314357 31.15234375 0.14648438 C39.77878923 0.17839103 48.40497988 0.22940464 57.03125 0.29296875 C57.59375 2.23046875 57.59375 2.23046875 58.03125 4.29296875 C56.14876314 6.17545561 52.89932885 5.43778196 50.39453125 5.45068359 C49.35262634 5.45830467 49.35262634 5.45830467 48.28967285 5.46607971 C46.7733386 5.47681322 45.2569882 5.4854216 43.7406311 5.49219894 C41.32464436 5.50399957 38.90883546 5.52346592 36.49291992 5.5453186 C29.6203424 5.60681963 22.74777365 5.66053381 15.875 5.69433594 C11.67206817 5.71556252 7.46944548 5.75110374 3.26669312 5.79509354 C1.67869776 5.80906188 0.09064753 5.81793155 -1.49740601 5.82114792 C-22.84710448 5.86887149 -43.18136903 9.03555414 -59.96875 23.29296875 C-60.75894531 23.95941406 -61.54914063 24.62585938 -62.36328125 25.3125 C-71.66565693 33.85420442 -77.54977576 44.94785882 -79.96875 57.29296875 C-80.195625 58.28296875 -80.4225 59.27296875 -80.65625 60.29296875 C-82.24664894 75.56079862 -79.44797039 93.63958929 -69.65478516 105.94384766 C-64.47501394 112.43020535 -64.47501394 112.43020535 -57.96875 117.29296875 C-57.96875 117.95296875 -57.96875 118.61296875 -57.96875 119.29296875 C-56.9478125 119.66421875 -56.9478125 119.66421875 -55.90625 120.04296875 C-52.96875 121.29296875 -52.96875 121.29296875 -49.90625 123.10546875 C-36.05089535 131.10813049 -20.42985287 134.29970496 -4.54296875 134.49829102 C-3.84929703 134.50819061 -3.15562531 134.51809021 -2.44093323 134.52828979 C-0.17940522 134.55953091 2.08214369 134.58451194 4.34375 134.609375 C5.92415877 134.62997695 7.50456242 134.65097421 9.08496094 134.67234802 C13.22108798 134.72723429 17.35726196 134.77678938 21.49346924 134.82519531 C25.72355264 134.8756564 29.95356887 134.93121331 34.18359375 134.98632812 C42.46608884 135.09349987 50.74864056 135.19503378 59.03125 135.29296875 C59.03125 135.95296875 59.03125 136.61296875 59.03125 137.29296875 C60.02125 137.95296875 61.01125 138.61296875 62.03125 139.29296875 C51.92876946 139.38643713 41.82639498 139.45711779 31.72356701 139.50021744 C27.03031623 139.52092307 22.33736536 139.54892131 17.64428711 139.59472656 C13.09898833 139.63880212 8.55397447 139.66223308 4.00847816 139.67247772 C2.29087156 139.67976022 0.57327713 139.69397347 -1.14420509 139.71588898 C-26.02436416 140.02018229 -49.02705719 134.48505218 -67.4609375 116.91796875 C-81.79970978 101.85501606 -86.48046179 84.17129808 -86.1796875 63.87109375 C-85.68309814 49.04698175 -79.63424367 36.35458928 -69.96875 25.29296875 C-69.47117187 24.70128906 -68.97359375 24.10960937 -68.4609375 23.5 C-50.97811473 4.3040363 -24.64957816 -0.25008548 0 0 Z " fill="#101010" transform="translate(177.96875,418.70703125)"/>
<path d="M0 0 C11.88 0 23.76 0 36 0 C36 15.84 36 31.68 36 48 C33.525 48.495 33.525 48.495 31 49 C27.20510917 45.95032942 24.82448412 42.41520207 22.375 38.25 C21.68815356 37.10039182 20.99923714 35.95201863 20.30859375 34.8046875 C19.75727783 33.88768066 19.75727783 33.88768066 19.19482422 32.95214844 C17.01024637 29.38290355 14.71970048 25.88229973 12.4375 22.375 C11.97029541 21.65393066 11.50309082 20.93286133 11.02172852 20.18994141 C8.94019459 16.97818103 6.85158819 13.77165512 4.7421875 10.578125 C4.10539062 9.60359375 3.46859375 8.6290625 2.8125 7.625 C2.26207031 6.79226563 1.71164062 5.95953125 1.14453125 5.1015625 C0 3 0 3 0 0 Z " fill="#FCFCFC" transform="translate(389,505)"/>
<path d="M0 0 C0.33 0 0.66 0 1 0 C1 25.08 1 50.16 1 76 C-11.21 76.33 -23.42 76.66 -36 77 C-36 77.33 -36 77.66 -36 78 C-24.12 78.33 -12.24 78.66 0 79 C0.66 80.65 1.32 82.3 2 84 C2.66 84.33 3.32 84.66 4 85 C4 84.34 4 83.68 4 83 C3.34 83 2.68 83 2 83 C3 81 3 81 5 80 C5.05069411 86.76266277 5.08573108 93.52527655 5.10986328 100.28808594 C5.1199232 102.58888582 5.13357262 104.8896729 5.15087891 107.19042969 C5.17512735 110.4967769 5.18648323 113.80295512 5.1953125 117.109375 C5.20563507 118.13867126 5.21595764 119.16796753 5.22659302 120.22845459 C5.22674408 121.18914856 5.22689514 122.14984253 5.22705078 123.13964844 C5.231492 123.98348083 5.23593323 124.82731323 5.24050903 125.69671631 C4.97447467 128.24444853 4.36355901 129.84109712 3 132 C0.72751762 133.13624119 -0.78302764 133.26446843 -3.3125 133.375 C-4.07175781 133.42398438 -4.83101563 133.47296875 -5.61328125 133.5234375 C-10.32901573 132.4892175 -12.81405429 128.43110637 -15.32421875 124.57421875 C-16.11878969 123.2828115 -16.90624119 121.98700388 -17.6875 120.6875 C-18.56495133 119.2564167 -19.44255998 117.82542984 -20.3203125 116.39453125 C-20.76407227 115.66572754 -21.20783203 114.93692383 -21.66503906 114.18603516 C-23.77322663 110.73382018 -25.91756706 107.30445957 -28.0625 103.875 C-28.46992432 103.22088135 -28.87734863 102.5667627 -29.29711914 101.89282227 C-31.37775385 98.55942992 -33.48222947 95.24443055 -35.62890625 91.953125 C-36.04841553 91.30875488 -36.4679248 90.66438477 -36.90014648 90.00048828 C-37.69892158 88.7774087 -38.5016407 87.55689315 -39.30883789 86.33935547 C-42 82.2197179 -42 82.2197179 -42 80 C-64.11 80 -86.22 80 -109 80 C-109 79.67 -109 79.34 -109 79 C-108.19011627 78.99191315 -107.38023254 78.98382629 -106.54580688 78.97549438 C-98.92332269 78.8976396 -91.30103245 78.81037705 -83.67878151 78.71247292 C-79.75984887 78.66246998 -75.84094371 78.61614057 -71.921875 78.578125 C-68.14163767 78.5413223 -64.36162809 78.49497657 -60.58158493 78.44193649 C-59.13749552 78.42336573 -57.69335724 78.40826772 -56.2491951 78.39665604 C-54.23064937 78.37984008 -52.21222812 78.34966895 -50.19384766 78.31884766 C-48.46843246 78.29886215 -48.46843246 78.29886215 -46.7081604 78.2784729 C-43.85191072 78.27262362 -43.85191072 78.27262362 -42 76 C-41.34 76.33 -40.68 76.66 -40 77 C-40 76.34 -40 75.68 -40 75 C-26.8 75 -13.6 75 0 75 C0 50.25 0 25.5 0 0 Z M-36 80 C-35.17248646 83.31005416 -34.55782725 85.01845782 -32.84765625 87.80078125 C-32.18479614 88.88456055 -32.18479614 88.88456055 -31.50854492 89.99023438 C-31.0313501 90.75658203 -30.55415527 91.52292969 -30.0625 92.3125 C-29.32640503 93.50649414 -29.32640503 93.50649414 -28.57543945 94.72460938 C-24.98295641 100.51502995 -21.25774986 106.20677634 -17.43554688 111.84765625 C-14.51210168 116.1737884 -11.81013706 120.58909904 -9.25390625 125.14453125 C-7.97408168 127.29085837 -7.97408168 127.29085837 -5 129 C-2.525 128.505 -2.525 128.505 0 128 C0 112.16 0 96.32 0 80 C-11.88 80 -23.76 80 -36 80 Z " fill="#050505" transform="translate(425,425)"/>
<path d="M0 0 C4.04311803 1.34770601 5.00064117 3.91312344 7 7.4375 C7.8024659 8.81303684 8.60589299 10.18801329 9.41015625 11.5625 C9.83184082 12.28824219 10.25352539 13.01398438 10.68798828 13.76171875 C12.88905856 17.51672662 15.1630934 21.22660498 17.4375 24.9375 C17.90164307 25.69611328 18.36578613 26.45472656 18.84399414 27.23632812 C24.5380817 36.53037623 30.31697418 45.77062697 36.15234375 54.9765625 C36.68802979 55.82226807 37.22371582 56.66797363 37.77563477 57.53930664 C38.81236419 59.17487351 39.85052483 60.80953441 40.89038086 62.44311523 C42.27191768 64.6217015 43.63880045 66.80866333 45 69 C45.63083496 69.99362549 45.63083496 69.99362549 46.27441406 71.00732422 C47.26354673 72.62494178 48.14277567 74.30877663 49 76 C48.67 76.99 48.34 77.98 48 79 C45.2687164 78.65660702 44.23008203 78.27591855 42.4387207 76.12768555 C41.3814368 74.38692911 40.32743985 72.64417393 39.27593994 70.8999176 C37.98936813 68.7949355 36.67938193 66.70404669 35.34397888 64.62969971 C31.59585304 58.71855827 28.59979386 53.27726179 26.29980469 46.61743164 C23.19575573 38.61136366 19.65751055 30.58207443 12 26 C-2.85492167 20.65695947 -20.98777658 22.9530117 -36.45062256 23.61383057 C-42.48947274 23.84149798 -48.52997987 23.90768616 -54.57226562 23.98828125 C-66.38852725 24.16930434 -78.19205809 24.52725849 -90 25 C-89.01 23.515 -89.01 23.515 -88 22 C-84.88992437 21.7139942 -81.97993625 21.62213042 -78.86865234 21.65942383 C-77.92226395 21.65898575 -76.97587555 21.65854767 -76.00080872 21.65809631 C-72.86231083 21.66019187 -69.72434244 21.68355917 -66.5859375 21.70703125 C-64.41403495 21.71262447 -62.24212863 21.71689586 -60.07022095 21.71989441 C-54.34576012 21.73136471 -48.6215266 21.76085074 -42.89715576 21.79400635 C-37.05907263 21.82466015 -31.22095287 21.83838971 -25.3828125 21.85351562 C-13.92175891 21.88571835 -2.46093389 21.93850415 9 22 C5.37 15.73 1.74 9.46 -2 3 C-1.34 2.01 -0.68 1.02 0 0 Z " fill="#0F0F0F" transform="translate(850,479)"/>
<path d="M0 0 C11.95852227 2.72374151 21.93174991 8.85441653 29 19 C35.19333077 30.38275506 36.93126806 41.04403153 33.4375 53.75 C31.34998512 59.84348534 28.43202492 64.3605186 24 69 C23.47664062 69.55171875 22.95328125 70.1034375 22.4140625 70.671875 C8.33611016 83.99442502 -9.9301042 84.44164644 -28.078125 84.29296875 C-30.10121341 84.28736332 -32.12430594 84.28309771 -34.1473999 84.28010559 C-39.43442315 84.26873133 -44.72119339 84.23932911 -50.00811768 84.20599365 C-55.4181374 84.17513164 -60.82819859 84.16156599 -66.23828125 84.14648438 C-76.8256311 84.1144514 -87.41279439 84.06334627 -98 84 C-98 83.67 -98 83.34 -98 83 C-68.63 83 -39.26 83 -9 83 C-8.505 81.02 -8.505 81.02 -8 79 C-6.36108398 78.09033203 -6.36108398 78.09033203 -4.24609375 77.5078125 C-3.09330933 77.1677417 -3.09330933 77.1677417 -1.91723633 76.82080078 C-1.09892334 76.59118652 -0.28061035 76.36157227 0.5625 76.125 C7.32518132 74.04305789 12.92236874 72.12729025 18 67 C18.62003906 66.41605469 19.24007812 65.83210938 19.87890625 65.23046875 C26.66309594 58.27632024 29.17622072 50.5568779 29.5 40.9375 C29.17708572 30.40818792 25.08428695 21.69493934 17.4375 14.4375 C11.55059971 9.46560481 4.58959929 6.28544564 -3 5 C-2.01 3.35 -1.02 1.7 0 0 Z " fill="#101010" transform="translate(528,421)"/>
<path d="M0 0 C1.28392136 -0.00569504 1.28392136 -0.00569504 2.59378052 -0.01150513 C5.41795736 -0.01890244 8.24110037 0.00246544 11.06518555 0.02490234 C13.0342751 0.02728804 15.00336696 0.02819182 16.97245789 0.02767944 C21.0991339 0.0308064 25.22546225 0.04735964 29.35205078 0.07421875 C34.62777512 0.10813122 39.9031164 0.11584903 45.17893696 0.11432838 C49.24628826 0.11487384 53.31355672 0.12587026 57.38088036 0.14033127 C59.32523154 0.14667333 61.26959206 0.15063206 63.21395302 0.15211868 C65.93967074 0.15648316 68.66499312 0.17405311 71.390625 0.1953125 C72.1862233 0.19440613 72.98182159 0.19349976 73.80152893 0.19256592 C78.96152175 0.25104685 83.42389652 1.06758935 88.3894043 2.48583984 C88.0594043 3.80583984 87.7294043 5.12583984 87.3894043 6.48583984 C86.20145767 6.48361923 85.01351105 6.48139862 83.78956604 6.47911072 C72.62032444 6.45888093 61.45108652 6.44386849 50.28183079 6.43402767 C44.53895367 6.42879843 38.79609129 6.42170004 33.05322266 6.41040039 C27.51600435 6.39957297 21.97880026 6.39356332 16.44157219 6.3909626 C14.32396152 6.38910809 12.20635168 6.38548698 10.08874702 6.38010979 C7.13369155 6.37290128 4.17869559 6.37184882 1.22363281 6.37231445 C0.33890793 6.36871918 -0.54581696 6.3651239 -1.45735168 6.36141968 C-5.34591093 5.98136069 -5.34591093 5.98136069 -8.6105957 7.48583984 C-8.76866101 9.41062797 -8.8617307 11.34083195 -8.92700195 13.27099609 C-8.96889648 14.44082031 -9.01079102 15.61064453 -9.05395508 16.81591797 C-9.09327148 18.04761719 -9.13258789 19.27931641 -9.1730957 20.54833984 C-9.23787109 22.40168945 -9.23787109 22.40168945 -9.30395508 24.29248047 C-9.41043768 27.3568132 -9.51244994 30.42123058 -9.6105957 33.48583984 C-9.9405957 33.48583984 -10.2705957 33.48583984 -10.6105957 33.48583984 C-10.9405957 39.42583984 -11.2705957 45.36583984 -11.6105957 51.48583984 C-11.9405957 51.48583984 -12.2705957 51.48583984 -12.6105957 51.48583984 C-12.90942515 43.39916523 -13.18804079 35.31238078 -13.42984009 27.22381592 C-13.54449641 23.43075162 -13.68693472 19.64024739 -13.8527832 15.84912109 C-13.89863902 14.35307509 -13.94307893 12.85698447 -13.9855957 11.36083984 C-14.03458008 10.10013672 -14.08356445 8.83943359 -14.1340332 7.54052734 C-13.6105957 4.48583984 -13.6105957 4.48583984 -11.61604309 2.32528687 C-7.72350187 -0.057095 -4.42557606 -0.06204429 0 0 Z " fill="#0C0C0C" transform="translate(439.610595703125,418.51416015625)"/>
<path d="M0 0 C0.66 0 1.32 0 2 0 C2 0.66 2 1.32 2 2 C2.99 2.33 3.98 2.66 5 3 C4.54282593 3.73428223 4.54282593 3.73428223 4.07641602 4.48339844 C-3.66557886 16.92890173 -11.31892362 29.42589977 -18.90991211 41.96386719 C-22.97581725 48.67685357 -27.0664816 55.37330838 -31.18994141 62.05102539 C-32.43955152 64.08690894 -33.67780534 66.12979128 -34.90673828 68.17822266 C-38.61417621 74.35655699 -42.37377759 79.6868888 -49 83 C-51.6723621 83.13415472 -54.32250488 83.04318541 -57 83 C-56.505 81.515 -56.505 81.515 -56 80 C-79.43 80 -102.86 80 -127 80 C-127 79.67 -127 79.34 -127 79 C-126.07371796 78.99635437 -125.14743591 78.99270874 -124.19308472 78.98895264 C-115.4533501 78.95104784 -106.7139877 78.89416672 -97.97451591 78.81609726 C-93.48169391 78.77662891 -88.98906771 78.74443736 -84.49609375 78.72900391 C-80.15810775 78.71383297 -75.82066008 78.67938002 -71.48291397 78.63169098 C-69.83001516 78.61688162 -68.17703949 78.60895924 -66.52407455 78.60811615 C-64.20410882 78.60574329 -61.88562697 78.57864093 -59.56591797 78.54589844 C-58.24687469 78.53701599 -56.92783142 78.52813354 -55.56881714 78.51898193 C-50.51761242 77.78442931 -47.38897365 75.62882865 -44.10693359 71.7800293 C-43.32310303 70.59534058 -43.32310303 70.59534058 -42.5234375 69.38671875 C-41.9365918 68.50677246 -41.34974609 67.62682617 -40.74511719 66.72021484 C-40.16922852 65.82254395 -39.59333984 64.92487305 -39 64 C-38.4627832 63.16291504 -37.92556641 62.32583008 -37.37207031 61.46337891 C-35.7690156 58.92529136 -34.19282989 56.37248161 -32.625 53.8125 C-32.0575708 52.89106201 -31.4901416 51.96962402 -30.90551758 51.02026367 C-27.45805917 45.41136175 -24.0496559 39.78078425 -20.68212891 34.12353516 C-15.98062551 26.24931654 -11.13953941 18.45921961 -6.3190918 10.6574707 C-5.31036011 9.02297974 -5.31036011 9.02297974 -4.28125 7.35546875 C-3.67345703 6.37215576 -3.06566406 5.38884277 -2.43945312 4.37573242 C-1.01392252 2.09535253 -1.01392252 2.09535253 0 0 Z " fill="#101010" transform="translate(293,474)"/>
<path d="M0 0 C0.33 0 0.66 0 1 0 C1 41.58 1 83.16 1 126 C-0.485 126.495 -0.485 126.495 -2 127 C-3 126 -3 126 -3.12304783 124.04971981 C-3.12212604 123.18784337 -3.12120424 122.32596693 -3.12025452 121.43797302 C-3.12162918 120.45214233 -3.12300385 119.46631165 -3.12442017 118.4506073 C-3.12082489 117.36016617 -3.11722961 116.26972504 -3.11352539 115.14624023 C-3.11367142 114.00492645 -3.11381744 112.86361267 -3.1139679 111.68771362 C-3.11326818 107.89465469 -3.10547307 104.10164416 -3.09765625 100.30859375 C-3.09579228 97.68685432 -3.09436828 95.06511454 -3.09336853 92.44337463 C-3.09025551 86.23498045 -3.08204252 80.02660379 -3.07201904 73.81821734 C-3.06085699 66.75182559 -3.05534722 59.68543301 -3.05032361 52.61903465 C-3.03985988 38.07934737 -3.022261 23.53967393 -3 9 C-2.67 9 -2.34 9 -2 9 C-1.67 11.64 -1.34 14.28 -1 17 C-0.67 11.39 -0.34 5.78 0 0 Z " fill="#050505" transform="translate(577,431)"/>
<path d="M0 0 C1.49988961 -0.0276619 2.99993869 -0.0466861 4.5 -0.0625 C5.3353125 -0.07410156 6.170625 -0.08570313 7.03125 -0.09765625 C10 0 10 0 13.72143555 0.49327087 C17.63175321 0.99372859 21.48085334 1.15601067 25.42578125 1.20532227 C26.11945297 1.21522186 26.81312469 1.22512146 27.52781677 1.23532104 C29.78934478 1.26656216 32.05089369 1.29154319 34.3125 1.31640625 C35.89290877 1.3370082 37.47331242 1.35800546 39.05371094 1.37937927 C43.18983798 1.43426554 47.32601196 1.48382063 51.46221924 1.53222656 C55.69230264 1.58268765 59.92231887 1.63824456 64.15234375 1.69335938 C72.43483884 1.80053112 80.71739056 1.90206503 89 2 C89 2.66 89 3.32 89 4 C89.99 4.66 90.98 5.32 92 6 C81.72475131 6.04645882 71.44952785 6.08193785 61.17419529 6.10362434 C56.40230649 6.11403579 51.63048986 6.12814656 46.85864258 6.15087891 C42.24857314 6.17270169 37.63857287 6.18458845 33.02845573 6.18975449 C31.27470754 6.19343336 29.52096288 6.20061707 27.76724434 6.21146011 C10.19193513 6.31574761 10.19193513 6.31574761 3 4 C0.9375 1.875 0.9375 1.875 0 0 Z " fill="#090909" transform="translate(148,552)"/>
<path d="M0 0 C1.32 0.66 2.64 1.32 4 2 C3.02763013 6.51104582 0.92268076 10.12670865 -1.3125 14.125 C-1.70373047 14.85332031 -2.09496094 15.58164062 -2.49804688 16.33203125 C-2.88669922 17.02941406 -3.27535156 17.72679687 -3.67578125 18.4453125 C-4.02552002 19.07969238 -4.37525879 19.71407227 -4.7355957 20.36767578 C-6 22 -6 22 -10 24 C38.51 24.495 38.51 24.495 88 25 C88 25.33 88 25.66 88 26 C55.66 26 23.32 26 -10 26 C-10.99 28.475 -10.99 28.475 -12 31 C-13.42116965 34.19248256 -14.87861473 37.21172939 -17 40 C-20.3125 41.0625 -20.3125 41.0625 -23 41 C-21.49064244 36.87506563 -19.46490155 33.17627812 -17.2265625 29.4140625 C-16.86154633 28.79405365 -16.49653015 28.1740448 -16.12045288 27.5352478 C-14.95857159 25.56321445 -13.7919457 23.59403989 -12.625 21.625 C-11.46625795 19.66248947 -10.30849884 17.69940212 -9.15097046 15.73617554 C-8.43285115 14.51900913 -7.71385786 13.30235774 -6.99380493 12.08633423 C-4.62333736 8.07911695 -2.30217353 4.04665373 0 0 Z " fill="#292929" transform="translate(771,479)"/>
<path d="M0 0 C12.35188415 -0.06939732 24.70372221 -0.12275894 37.05576134 -0.15543652 C42.79082481 -0.17111718 48.52575528 -0.1923992 54.26074219 -0.22631836 C59.79149311 -0.25882625 65.32211581 -0.27683491 70.85295486 -0.28463173 C72.9669662 -0.29019068 75.08097022 -0.30104538 77.19492722 -0.31719017 C80.14752321 -0.33885052 83.09958391 -0.34197171 86.05224609 -0.34057617 C86.9333757 -0.351362 87.81450531 -0.36214783 88.72233582 -0.3732605 C91.15292358 -0.36076355 91.15292358 -0.36076355 95 0 C95.99 1.485 95.99 1.485 97 3 C64.66 3 32.32 3 -1 3 C-0.67 2.01 -0.34 1.02 0 0 Z " fill="#050505" transform="translate(761,501)"/>
<path d="M0 0 C0.33 0 0.66 0 1 0 C1 25.08 1 50.16 1 76 C-11.21 76.33 -23.42 76.66 -36 77 C-36 77.33 -36 77.66 -36 78 C-24.12 78.33 -12.24 78.66 0 79 C0 79.33 0 79.66 0 80 C-11.88 80 -23.76 80 -36 80 C-35.01 82.31 -34.02 84.62 -33 87 C-35.38564077 86.42415568 -37.66682784 85.77772405 -40 85 C-40.66 83.35 -41.32 81.7 -42 80 C-64.11 80 -86.22 80 -109 80 C-109 79.67 -109 79.34 -109 79 C-108.19011627 78.99191315 -107.38023254 78.98382629 -106.54580688 78.97549438 C-98.92332269 78.8976396 -91.30103245 78.81037705 -83.67878151 78.71247292 C-79.75984887 78.66246998 -75.84094371 78.61614057 -71.921875 78.578125 C-68.14163767 78.5413223 -64.36162809 78.49497657 -60.58158493 78.44193649 C-59.13749552 78.42336573 -57.69335724 78.40826772 -56.2491951 78.39665604 C-54.23064937 78.37984008 -52.21222812 78.34966895 -50.19384766 78.31884766 C-48.46843246 78.29886215 -48.46843246 78.29886215 -46.7081604 78.2784729 C-43.85191072 78.27262362 -43.85191072 78.27262362 -42 76 C-41.34 76.33 -40.68 76.66 -40 77 C-40 76.34 -40 75.68 -40 75 C-26.8 75 -13.6 75 0 75 C0 50.25 0 25.5 0 0 Z " fill="#5C5C5C" transform="translate(425,425)"/>
<path d="M0 0 C4.62264714 0.83285904 6.34374634 1.15879199 9.30078125 4.94921875 C9.99206577 6.18394276 10.66163689 7.43099895 11.3125 8.6875 C12.07050307 10.0502505 12.83234838 11.41086962 13.59765625 12.76953125 C13.98711426 13.46900879 14.37657227 14.16848633 14.77783203 14.88916016 C16.76976597 18.32948394 19.00776748 21.59451087 21.25 24.875 C24.42403024 29.55039119 27.39421469 34.22210944 29.96484375 39.265625 C31.09271214 41.15533657 32.38806843 42.51206316 34 44 C33.01 44.99 32.02 45.98 31 47 C26.96102673 45.65367558 25.81338637 43.02569608 23.6875 39.5625 C23.32205078 38.98306641 22.95660156 38.40363281 22.58007812 37.80664062 C20.37852511 34.29708375 18.25278678 30.74517448 16.13671875 27.18359375 C12.39434573 20.92723293 8.36316633 14.86698065 4.328125 8.796875 C3.76867187 7.94609375 3.20921875 7.0953125 2.6328125 6.21875 C2.12637207 5.45498047 1.61993164 4.69121094 1.09814453 3.90429688 C0 2 0 2 0 0 Z " fill="#111111" transform="translate(386,510)"/>
<path d="M0 0 C0 0.99 0 1.98 0 3 C-26.4 3 -52.8 3 -80 3 C-80.33 2.01 -80.66 1.02 -81 0 C-72.80150665 -0.15526164 -64.60292617 -0.30340749 -56.40415192 -0.4429636 C-52.59537309 -0.50800813 -48.78666509 -0.57532151 -44.97802734 -0.64819336 C-41.28872401 -0.71869221 -37.59935559 -0.78274424 -33.90986633 -0.84269524 C-32.51634294 -0.8664012 -31.12285416 -0.89226387 -29.72941589 -0.92053413 C-19.75967145 -1.12076722 -9.93400279 -0.75219386 0 0 Z " fill="#080808" transform="translate(666,420)"/>
<path d="M0 0 C2.3125 0.1875 2.3125 0.1875 4 1 C0.7994308 8.31330062 -6.17057598 12.40527214 -13.01953125 15.95703125 C-21.26596755 18.84274356 -29.6933513 19.28737048 -38.35546875 19.1953125 C-39.38311844 19.1924826 -40.41076813 19.18965271 -41.46955872 19.18673706 C-44.70899771 19.175661 -47.94814646 19.15058083 -51.1875 19.125 C-53.40168868 19.11495392 -55.61588175 19.10583094 -57.83007812 19.09765625 C-63.22014888 19.07576309 -68.6100537 19.04241364 -74 19 C-74 18.67 -74 18.34 -74 18 C-60.47 17.67 -46.94 17.34 -33 17 C-33 16.01 -33 15.02 -33 14 C-32.15179687 13.93683594 -31.30359375 13.87367188 -30.4296875 13.80859375 C-18.2503871 12.53712832 -8.76719237 8.82828779 0 0 Z " fill="#0B0B0B" transform="translate(697,486)"/>
<path d="M0 0 C0.99 0.33 1.98 0.66 3 1 C2.83203125 2.80859375 2.83203125 2.80859375 2 5 C-0.30078125 6.59765625 -0.30078125 6.59765625 -3.3125 8.0625 C-4.27800781 8.54847656 -5.24351562 9.03445313 -6.23828125 9.53515625 C-18.34974677 14.54241415 -30.20995197 14.39839128 -43.078125 14.29296875 C-45.10121341 14.28736332 -47.12430594 14.28309771 -49.1473999 14.28010559 C-54.43442315 14.26873133 -59.72119339 14.23932911 -65.00811768 14.20599365 C-70.4181374 14.17513164 -75.82819859 14.16156599 -81.23828125 14.14648438 C-91.8256311 14.1144514 -102.41279439 14.06334627 -113 14 C-113 13.67 -113 13.34 -113 13 C-83.63 13 -54.26 13 -24 13 C-23.67 11.68 -23.34 10.36 -23 9 C-21.31347656 8.04272461 -21.31347656 8.04272461 -19.140625 7.40234375 C-18.35429688 7.15806641 -17.56796875 6.91378906 -16.7578125 6.66210938 C-15.93023438 6.42298828 -15.10265625 6.18386719 -14.25 5.9375 C-7.95993278 4.11623871 -7.95993278 4.11623871 -2.109375 1.25390625 C-1.06523438 0.63322266 -1.06523438 0.63322266 0 0 Z " fill="#222222" transform="translate(543,491)"/>
<path d="M0 0 C0.99 0.33 1.98 0.66 3 1 C3.6875 3.0625 3.6875 3.0625 4 5 C3.01 5.33 2.02 5.66 1 6 C1 6.33 1 6.66 1 7 C-21.11 7 -43.22 7 -66 7 C-66 6.01 -66 5.02 -66 4 C-44.55 4 -23.1 4 -1 4 C-0.67 2.68 -0.34 1.36 0 0 Z " fill="#070707" transform="translate(381,497)"/>
<path d="M0 0 C0.33 0.99 0.66 1.98 1 3 C28.06 3 55.12 3 83 3 C83 3.33 83 3.66 83 4 C81.99997452 4.01030746 80.99994904 4.02061493 79.96961975 4.03123474 C70.56625227 4.12879804 61.1629535 4.23151546 51.75969791 4.33933926 C46.92486463 4.39461127 42.09002535 4.44803797 37.25512695 4.49731445 C32.59317516 4.54489507 27.93129933 4.59723533 23.26943779 4.65294075 C21.48677895 4.67339296 19.70409925 4.6921012 17.92140388 4.70907402 C15.43328399 4.73305486 12.94530902 4.7631176 10.45727539 4.79467773 C9.34057968 4.80331093 9.34057968 4.80331093 8.20132446 4.81211853 C4.81286517 4.5644931 4.81286517 4.5644931 2 6 C1.84193469 7.92478813 1.748865 9.8549921 1.68359375 11.78515625 C1.64169922 12.95498047 1.59980469 14.12480469 1.55664062 15.33007812 C1.51732422 16.56177734 1.47800781 17.79347656 1.4375 19.0625 C1.37272461 20.91584961 1.37272461 20.91584961 1.30664062 22.80664062 C1.20015802 25.87097335 1.09814576 28.93539073 1 32 C0.67 32 0.34 32 0 32 C-0.33 37.94 -0.66 43.88 -1 50 C-1.33 50 -1.66 50 -2 50 C-2.36949747 40.00096611 -2.70199722 30.00139169 -3 20 C-3.03158203 18.99646484 -3.06316406 17.99292969 -3.09570312 16.95898438 C-3.1646773 14.57672232 -3.21310147 12.19543931 -3.25 9.8125 C-3.27578125 8.54019531 -3.3015625 7.26789063 -3.328125 5.95703125 C-3 3 -3 3 -1.484375 1.07421875 C-0.99453125 0.71972656 -0.5046875 0.36523438 0 0 Z " fill="#131313" transform="translate(429,420)"/>
<path d="M0 0 C7.08411622 -0.05058526 14.16818612 -0.08568494 21.25244141 -0.10986328 C23.66391744 -0.11993954 26.07538122 -0.13360081 28.48681641 -0.15087891 C31.94697085 -0.1750559 35.4069642 -0.18646669 38.8671875 -0.1953125 C39.95055389 -0.20563507 41.03392029 -0.21595764 42.15011597 -0.22659302 C43.1510025 -0.22674408 44.15188904 -0.22689514 45.18310547 -0.22705078 C46.06690887 -0.231492 46.95071228 -0.23593323 47.86129761 -0.24050903 C50 0 50 0 52 2 C48.58331995 3.70834002 44.6678806 3.17973547 40.90625 3.2109375 C39.05337642 3.23899568 37.20051195 3.26766006 35.34765625 3.296875 C32.41780755 3.33823062 29.48813065 3.37510638 26.55810547 3.40136719 C23.73629463 3.42886929 20.91526351 3.47472883 18.09375 3.5234375 C16.77340759 3.5283168 16.77340759 3.5283168 15.4263916 3.53329468 C12.70471158 3.55395691 12.70471158 3.55395691 9 4 C8.01 5.485 8.01 5.485 7 7 C1.125 6.125 1.125 6.125 0 5 C-0.04063832 3.33382885 -0.042721 1.66611905 0 0 Z " fill="#050505" transform="translate(614,501)"/>
<path d="M0 0 C1.32 0.66 2.64 1.32 4 2 C3.43997584 5.53659092 2.32225676 6.95559692 -0.4375 9.1875 C-1.05496094 9.69667969 -1.67242187 10.20585938 -2.30859375 10.73046875 C-6.17307097 13.63105789 -9.2876058 13.07600636 -14 13 C-13.67 12.01 -13.34 11.02 -13 10 C-36.43 10 -59.86 10 -84 10 C-84 9.67 -84 9.34 -84 9 C-83.07371796 8.99635437 -82.14743591 8.99270874 -81.19308472 8.98895264 C-72.4533501 8.95104784 -63.7139877 8.89416672 -54.97451591 8.81609726 C-50.48169391 8.77662891 -45.98906771 8.74443736 -41.49609375 8.72900391 C-37.15810775 8.71383297 -32.82066008 8.67938002 -28.48291397 8.63169098 C-26.83001516 8.61688162 -25.17703949 8.60895924 -23.52407455 8.60811615 C-21.20410882 8.60574329 -18.88562697 8.57864093 -16.56591797 8.54589844 C-15.24687469 8.53701599 -13.92783142 8.52813354 -12.56881714 8.51898193 C-7.5128584 7.78373797 -4.36918029 5.64301634 -1.125 1.75 C-0.568125 0.88375 -0.568125 0.88375 0 0 Z " fill="#202020" transform="translate(250,544)"/>
<path d="M0 0 C0.33 0 0.66 0 1 0 C1.96438491 17.34610416 2.11998342 34.63193789 2 52 C0.515 52.495 0.515 52.495 -1 53 C-1.38218767 51.34385343 -1.71395102 49.67542976 -2 48 C-1.505 47.505 -1.505 47.505 -1 47 C-0.92358132 44.12474716 -0.90936214 41.27324565 -0.9375 38.3984375 C-0.94128662 37.52861237 -0.94507324 36.65878723 -0.94897461 35.76260376 C-0.96534912 32.02934067 -0.99328186 28.29618559 -1.02050781 24.56298828 C-1.03868631 21.84147658 -1.05072994 19.1199833 -1.0625 16.3984375 C-1.07079834 15.56275238 -1.07909668 14.72706726 -1.08764648 13.86605835 C-1.10727236 9.13029925 -0.79548337 4.67033299 0 0 Z " fill="#0B0B0B" transform="translate(576,505)"/>
<path d="M0 0 C0.66 1.32 1.32 2.64 2 4 C2.66 4.33 3.32 4.66 4 5 C4 4.34 4 3.68 4 3 C3.34 3 2.68 3 2 3 C3 1 3 1 5 0 C5.0871747 3.74985325 5.14045003 7.49944555 5.1875 11.25 C5.22520508 12.84521484 5.22520508 12.84521484 5.26367188 14.47265625 C5.27333984 15.49746094 5.28300781 16.52226563 5.29296875 17.578125 C5.3086792 18.52075195 5.32438965 19.46337891 5.34057617 20.43457031 C4.9379722 23.46723164 3.84125981 24.61705343 2 27 C1.50348204 29.30746465 1.50348204 29.30746465 1.48828125 31.765625 C1.45283203 32.65507813 1.41738281 33.54453125 1.38085938 34.4609375 C1.35830078 35.38132812 1.33574219 36.30171875 1.3125 37.25 C1.27833984 38.18585937 1.24417969 39.12171875 1.20898438 40.0859375 C1.12667838 42.39050533 1.0574737 44.69470119 1 47 C0.67 47 0.34 47 0 47 C0 31.49 0 15.98 0 0 Z " fill="#383838" transform="translate(425,505)"/>
<path d="M0 0 C0.495 0.99 0.495 0.99 1 2 C0.67 2.66 0.34 3.32 0 4 C-6.87575455 6.27792479 -14.09636481 6.27101959 -21.2578125 6.1953125 C-22.80140945 6.19106766 -22.80140945 6.19106766 -24.37619019 6.18673706 C-27.62591756 6.17564479 -30.87535754 6.15056115 -34.125 6.125 C-36.34374599 6.11495603 -38.56249634 6.10583267 -40.78125 6.09765625 C-46.18759615 6.07574149 -51.59377753 6.04237499 -57 6 C-57 5.67 -57 5.34 -57 5 C-43.47 4.67 -29.94 4.34 -16 4 C-16 3.01 -16 2.02 -16 1 C-10.62915894 0.31798844 -5.41499441 -0.11521265 0 0 Z " fill="#303030" transform="translate(680,499)"/>
<path d="M0 0 C0.99 0.99 1.98 1.98 3 3 C-4.59 4.32 -12.18 5.64 -20 7 C-20 6.34 -20 5.68 -20 5 C-21.32 4.34 -22.64 3.68 -24 3 C-21.5039427 2.29419739 -19.00495146 1.6103726 -16.5 0.9375 C-15.80390625 0.73833984 -15.1078125 0.53917969 -14.390625 0.33398438 C-9.21439576 -1.03196501 -5.25457322 -1.16206908 0 0 Z " fill="#1E1E1E" transform="translate(162,421)"/>
<path d="M0 0 C11.66666667 0 23.33333333 0 35 0 C35 0.99 35 1.98 35 3 C23.12 3 11.24 3 -1 3 C-0.67 2.01 -0.34 1.02 0 0 Z " fill="#090909" transform="translate(201,420)"/>
<path d="M0 0 C0.33 0 0.66 0 1 0 C1.33 1.65 1.66 3.3 2 5 C2.33 5 2.66 5 3 5 C3.05447047 6.41623216 3.09300508 7.83308191 3.125 9.25 C3.14820313 10.03890625 3.17140625 10.8278125 3.1953125 11.640625 C2.97962391 14.24614317 2.3921178 15.79986977 1 18 C-1.40545638 19.20272819 -2.94996953 19.10071472 -5.625 19.0625 C-6.85089844 19.04896484 -6.85089844 19.04896484 -8.1015625 19.03515625 C-8.72804688 19.02355469 -9.35453125 19.01195312 -10 19 C-9.67 17.68 -9.34 16.36 -9 15 C-7.865625 14.71125 -6.73125 14.4225 -5.5625 14.125 C-4.386875 13.75375 -3.21125 13.3825 -2 13 C-0.71553081 10.43106162 -0.67022856 8.23423663 -0.4375 5.375 C-0.35371094 4.37210938 -0.26992188 3.36921875 -0.18359375 2.3359375 C-0.12300781 1.56507813 -0.06242187 0.79421875 0 0 Z " fill="#090909" transform="translate(427,539)"/>
<path d="M0 0 C5.61 0 11.22 0 17 0 C17 0.33 17 0.66 17 1 C19.64 1.33 22.28 1.66 25 2 C25 2.33 25 2.66 25 3 C16.42 3.33 7.84 3.66 -1 4 C-0.67 2.68 -0.34 1.36 0 0 Z " fill="#060606" transform="translate(430,420)"/>
<path d="M0 0 C0.33 0 0.66 0 1 0 C1 9.24 1 18.48 1 28 C-2.72785731 23.02952358 -2.63504805 19.99879885 -2.875 14 C-2.93429687 13.09765625 -2.99359375 12.1953125 -3.0546875 11.265625 C-3.0959375 10.39421875 -3.1371875 9.5228125 -3.1796875 8.625 C-3.21819824 7.83351563 -3.25670898 7.04203125 -3.29638672 6.2265625 C-2.9234518 3.42494269 -1.87769198 2.07095773 0 0 Z " fill="#0F0F0F" transform="translate(429,472)"/>
<path d="M0 0 C0.33 1.32 0.66 2.64 1 4 C1.66 4 2.32 4 3 4 C1.66511872 7.59391114 0.03977277 10.75490696 -2 14 C-3.32 12.68 -4.64 11.36 -6 10 C-4.02 6.7 -2.04 3.4 0 0 Z " fill="#121212" transform="translate(257,533)"/>
<path d="M0 0 C0.99 0 1.98 0 3 0 C3 0.66 3 1.32 3 2 C3.78375 2.268125 4.5675 2.53625 5.375 2.8125 C8 4 8 4 10 7 C9.34 7 8.68 7 8 7 C8.33 7.99 8.66 8.98 9 10 C5.00499382 8.6302836 2.19990508 6.74277578 -1 4 C-0.67 2.68 -0.34 1.36 0 0 Z " fill="#0C0C0C" transform="translate(117,536)"/>
<path d="M0 0 C0.66 0.99 1.32 1.98 2 3 C1 6 1 6 -0.84765625 6.94921875 C-1.57855469 7.19285156 -2.30945313 7.43648438 -3.0625 7.6875 C-4.16271484 8.06455078 -4.16271484 8.06455078 -5.28515625 8.44921875 C-5.85105469 8.63097656 -6.41695312 8.81273437 -7 9 C-7.33 8.01 -7.66 7.02 -8 6 C-8.33 5.34 -8.66 4.68 -9 4 C-6.03 2.68 -3.06 1.36 0 0 Z " fill="#121212" transform="translate(687,494)"/>
<path d="M0 0 C-1.45044271 4.10958767 -3.51110752 7.43258745 -6 11 C-6.99 10.67 -7.98 10.34 -9 10 C-8.52048204 5.68433833 -7.29764982 3.7980059 -4 1 C-2 0 -2 0 0 0 Z " fill="#0A0A0A" transform="translate(283,499)"/>
<path d="M0 0 C7.26 0.33 14.52 0.66 22 1 C21.67 1.66 21.34 2.32 21 3 C14.07 3 7.14 3 0 3 C0 2.01 0 1.02 0 0 Z " fill="#080808" transform="translate(388,501)"/>
<path d="M0 0 C0.33 0 0.66 0 1 0 C1 4.95 1 9.9 1 15 C0.01 15.33 -0.98 15.66 -2 16 C-4 14 -4 14 -4.1953125 11.8359375 C-4.17210937 11.02382813 -4.14890625 10.21171875 -4.125 9.375 C-4.10695313 8.55773437 -4.08890625 7.74046875 -4.0703125 6.8984375 C-4.04710937 6.27195312 -4.02390625 5.64546875 -4 5 C-3.01 6.485 -3.01 6.485 -2 8 C-0.03177114 6.03177114 -0.33751619 2.65191291 0 0 Z " fill="#202020" transform="translate(709,453)"/>
<path d="M0 0 C-0.66 0 -1.32 0 -2 0 C-2 0.66 -2 1.32 -2 2 C-0.68 2.33 0.64 2.66 2 3 C2 3.33 2 3.66 2 4 C-2.455 4.495 -2.455 4.495 -7 5 C-7.33 5.99 -7.66 6.98 -8 8 C-10.0625 8.6875 -10.0625 8.6875 -12 9 C-11.04737966 7.51714758 -10.08771595 6.03881799 -9.125 4.5625 C-8.32449219 3.32693359 -8.32449219 3.32693359 -7.5078125 2.06640625 C-5.07258653 -1.27098892 -3.73725567 -1.1211767 0 0 Z " fill="#181818" transform="translate(332,422)"/>
<path d="M0 0 C3.3 0 6.6 0 10 0 C9.01 0.495 9.01 0.495 8 1 C7.690625 1.639375 7.38125 2.27875 7.0625 2.9375 C6 5 6 5 3 7 C2.01 6.34 1.02 5.68 0 5 C0 3.35 0 1.7 0 0 Z " fill="#090909" transform="translate(614,501)"/>
<path d="M0 0 C2.25245881 2.68841859 3.88213958 4.64641875 5 8 C4.01 8.495 4.01 8.495 3 9 C2.01 10.485 2.01 10.485 1 12 C-1.97440393 7.45091164 -1.97440393 7.45091164 -3 5 C-2.32681681 2.67445808 -1.67512957 1.67512957 0 0 Z " fill="#151515" transform="translate(378,489)"/>
<path d="M0 0 C0.99 0.33 1.98 0.66 3 1 C3.08131463 2.43655854 3.13933559 3.8744483 3.1875 5.3125 C3.22230469 6.11300781 3.25710938 6.91351563 3.29296875 7.73828125 C2.93801608 10.47851584 2.10633718 11.29171079 0 13 C-0.19466332 11.20909747 -0.38051213 9.41723495 -0.5625 7.625 C-0.66691406 6.62726563 -0.77132812 5.62953125 -0.87890625 4.6015625 C-1 2 -1 2 0 0 Z " fill="#060606" transform="translate(706,450)"/>
<path d="M0 0 C0.33 0.99 0.66 1.98 1 3 C1.66 3 2.32 3 3 3 C3.33 2.34 3.66 1.68 4 1 C4.33 1.66 4.66 2.32 5 3 C1.67692308 7.8 1.67692308 7.8 -1.75 8.8125 C-2.4925 8.874375 -3.235 8.93625 -4 9 C-2.80100302 5.9168649 -1.52299523 2.93720508 0 0 Z " fill="#181818" transform="translate(752,511)"/>
<path d="M0 0 C2.15377564 2.62198774 3.40072174 4.64404172 4 8 C3.01 7.67 2.02 7.34 1 7 C0.34 7.66 -0.32 8.32 -1 9 C-1.99 6.69 -2.98 4.38 -4 2 C-2.68 1.34 -1.36 0.68 0 0 Z " fill="#161616" transform="translate(556,440)"/>
<path d="M0 0 C1.65 0.33 3.3 0.66 5 1 C4.01 2.98 3.02 4.96 2 7 C1.01 6.67 0.02 6.34 -1 6 C-3.19038423 7.37168238 -3.19038423 7.37168238 -5 9 C-3.7508258 5.54074837 -2.32472205 2.85306797 0 0 Z " fill="#181818" transform="translate(268,516)"/>
<path d="M0 0 C1.98 0.495 1.98 0.495 4 1 C3.67 3.64 3.34 6.28 3 9 C1.68 8.67 0.36 8.34 -1 8 C-0.67 5.36 -0.34 2.72 0 0 Z " fill="#0A0A0A" transform="translate(705,467)"/>
<path d="M0 0 C1.45792884 -0.05399736 2.91642712 -0.09279177 4.375 -0.125 C5.18710938 -0.14820313 5.99921875 -0.17140625 6.8359375 -0.1953125 C9 0 9 0 11 2 C10.67 2.66 10.34 3.32 10 4 C7.36 4 4.72 4 2 4 C1.34 2.68 0.68 1.36 0 0 Z " fill="#040404" transform="translate(157,553)"/>
<path d="M0 0 C0.99 0.66 1.98 1.32 3 2 C2.82374165 4.37948772 2.30280227 5.70225849 0.59765625 7.37890625 C-0.90649092 8.62115486 -2.45129851 9.81376056 -4 11 C-3.67 9.02 -3.34 7.04 -3 5 C-2.01 4.67 -1.02 4.34 0 4 C0 2.68 0 1.36 0 0 Z " fill="#070707" transform="translate(251,544)"/>
<path d="M0 0 C0.99 1.32 1.98 2.64 3 4 C3 3.34 3 2.68 3 2 C3.66 2.33 4.32 2.66 5 3 C3.02 5.97 3.02 5.97 1 9 C0.01 8.67 -0.98 8.34 -2 8 C-2.33 7.01 -2.66 6.02 -3 5 C-1.5625 2.3125 -1.5625 2.3125 0 0 Z " fill="#161616" transform="translate(785,456)"/>
<path d="M0 0 C0 0.99 0 1.98 0 3 C0.99 3.66 1.98 4.32 3 5 C-2.625 9 -2.625 9 -6 9 C-4.47291037 5.56404834 -2.40072955 2.88087546 0 0 Z " fill="#181818" transform="translate(729,550)"/>
<path d="M0 0 C0.33 0 0.66 0 1 0 C1.33 1.65 1.66 3.3 2 5 C2.33 5 2.66 5 3 5 C3.05422947 6.4370809 3.09289723 7.87475462 3.125 9.3125 C3.14820313 10.11300781 3.17140625 10.91351562 3.1953125 11.73828125 C3 14 3 14 1 17 C-1.64812363 11.2364368 -0.8019749 6.09067424 0 0 Z " fill="#111111" transform="translate(427,539)"/>
<path d="M0 0 C0.66 0.33 1.32 0.66 2 1 C1.45912682 4.78611227 -0.11722332 6.55400767 -3 9 C-3.66 9 -4.32 9 -5 9 C-4.5206753 4.68607774 -3.2542015 2.83430453 0 0 Z " fill="#090909" transform="translate(758,505)"/>
<path d="M0 0 C4.95 0 9.9 0 15 0 C15 0.33 15 0.66 15 1 C13.35 1.33 11.7 1.66 10 2 C10 2.33 10 2.66 10 3 C6.7 3 3.4 3 0 3 C0 2.01 0 1.02 0 0 Z " fill="#020202" transform="translate(337,501)"/>
<path d="M0 0 C1.65 1.65 3.3 3.3 5 5 C3.35 5.66 1.7 6.32 0 7 C-1.32 5.35 -2.64 3.7 -4 2 C-3.01 2 -2.02 2 -1 2 C-0.67 1.34 -0.34 0.68 0 0 Z " fill="#171717" transform="translate(696,430)"/>
<path d="M0 0 C1.65 1.65 3.3 3.3 5 5 C4.01 6.32 3.02 7.64 2 9 C0.4375 7.875 0.4375 7.875 -1 6 C-0.6875 2.8125 -0.6875 2.8125 0 0 Z " fill="#171717" transform="translate(113,531)"/>
<path d="M0 0 C2.0625 1.6875 2.0625 1.6875 4 4 C3.75 6.75 3.75 6.75 3 9 C1.68 8.34 0.36 7.68 -1 7 C-0.67 4.69 -0.34 2.38 0 0 Z " fill="#070707" transform="translate(861,496)"/>
<path d="M0 0 C0.99 0 1.98 0 3 0 C3.625 2.3125 3.625 2.3125 4 5 C3.01 6.485 3.01 6.485 2 8 C1.34 8 0.68 8 0 8 C-0.66 6.02 -1.32 4.04 -2 2 C-1.34 2 -0.68 2 0 2 C0 1.34 0 0.68 0 0 Z " fill="#151515" transform="translate(97,508)"/>
<path d="M0 0 C0.66 0 1.32 0 2 0 C2 0.66 2 1.32 2 2 C2.99 2.33 3.98 2.66 5 3 C3.68 4.65 2.36 6.3 1 8 C1 7.01 1 6.02 1 5 C-0.32 5.33 -1.64 5.66 -3 6 C-2.01 4.02 -1.02 2.04 0 0 Z " fill="#181818" transform="translate(293,474)"/>
<path d="M0 0 C2.64 0.66 5.28 1.32 8 2 C7.38125 2.28875 6.7625 2.5775 6.125 2.875 C3.86674235 3.93720042 3.86674235 3.93720042 2 6 C-0.625 5.625 -0.625 5.625 -3 5 C-2.01 3.35 -1.02 1.7 0 0 Z " fill="#1B1B1B" transform="translate(528,421)"/>
<path d="M0 0 C4.42857143 5.14285714 4.42857143 5.14285714 5 9 C1.535 7.02 1.535 7.02 -2 5 C-1.34 3.35 -0.68 1.7 0 0 Z " fill="#060606" transform="translate(103,518)"/>
<path d="M0 0 C0 0.66 0 1.32 0 2 C1.65 2 3.3 2 5 2 C4.67 2.66 4.34 3.32 4 4 C0.9375 4.625 0.9375 4.625 -2 5 C-2 4.34 -2 3.68 -2 3 C-3.32 2.34 -4.64 1.68 -6 1 C-3 0 -3 0 0 0 Z " fill="#161616" transform="translate(144,423)"/>
<path d="M0 0 C2 0.8125 2 0.8125 3.25 2.875 C3.4975 3.514375 3.745 4.15375 4 4.8125 C2.68 4.8125 1.36 4.8125 0 4.8125 C-0.33 5.4725 -0.66 6.1325 -1 6.8125 C-1.99 4.8325 -2.98 2.8525 -4 0.8125 C-2 -0.1875 -2 -0.1875 0 0 Z " fill="#161616" transform="translate(397,521.1875)"/>
<path d="M0 0 C1.32 1.65 2.64 3.3 4 5 C3.67 5.66 3.34 6.32 3 7 C1.35 6.67 -0.3 6.34 -2 6 C-2 4.35 -2 2.7 -2 1 C-1.34 0.67 -0.68 0.34 0 0 Z " fill="#121212" transform="translate(865,501)"/>
<path d="M0 0 C1.32 0 2.64 0 4 0 C4 1.65 4 3.3 4 5 C2.68 5.33 1.36 5.66 0 6 C-1 3 -1 3 0 0 Z " fill="#080808" transform="translate(556,473)"/>
<path d="M0 0 C0.99 0.33 1.98 0.66 3 1 C3.6875 3.0625 3.6875 3.0625 4 5 C2.68 5.33 1.36 5.66 0 6 C-0.66 4.68 -1.32 3.36 -2 2 C-1.34 1.34 -0.68 0.68 0 0 Z " fill="#070707" transform="translate(850,479)"/>
<path d="M0 0 C1.65 0 3.3 0 5 0 C5.66 1.32 6.32 2.64 7 4 C5.1875 4.6875 5.1875 4.6875 3 5 C1.25 3.6875 1.25 3.6875 0 2 C0 1.34 0 0.68 0 0 Z " fill="#070707" transform="translate(549,437)"/>
<path d="M0 0 C0.33 0.99 0.66 1.98 1 3 C0.01 4.485 0.01 4.485 -1 6 C-3.97 5.505 -3.97 5.505 -7 5 C-2.25 1.125 -2.25 1.125 0 0 Z " fill="#1A1A1A" transform="translate(129,428)"/>
<path d="M0 0 C2.475 0.99 2.475 0.99 5 2 C5 2.99 5 3.98 5 5 C3.02 5.99 3.02 5.99 1 7 C0.34 5.68 -0.32 4.36 -1 3 C-0.01 3 0.98 3 2 3 C1.34 2.01 0.68 1.02 0 0 Z " fill="#1C1C1C" transform="translate(414,550)"/>
<path d="M0 0 C2.97 0.495 2.97 0.495 6 1 C6 1.99 6 2.98 6 4 C3.125 4.125 3.125 4.125 0 4 C-0.66 3.34 -1.32 2.68 -2 2 C-1.34 2 -0.68 2 0 2 C0 1.34 0 0.68 0 0 Z " fill="#0D0D0D" transform="translate(621,506)"/>
<path d="M0 0 C0 3 0 3 -2 6 C-1.34 6 -0.68 6 0 6 C-0.66 7.32 -1.32 8.64 -2 10 C-2.99 8.68 -3.98 7.36 -5 6 C-3.35 4.02 -1.7 2.04 0 0 Z " fill="#262626" transform="translate(549,485)"/>
<path d="M0 0 C2.475 0.495 2.475 0.495 5 1 C5 1.99 5 2.98 5 4 C5.33 4.99 5.66 5.98 6 7 C5.01 7 4.02 7 3 7 C0 2.77777778 0 2.77777778 0 0 Z " fill="#070707" transform="translate(825,443)"/>
<path d="M0 0 C2.31 0.33 4.62 0.66 7 1 C6.01 1.66 5.02 2.32 4 3 C4.99 4.485 4.99 4.485 6 6 C4.68 5.67 3.36 5.34 2 5 C2 4.34 2 3.68 2 3 C1.34 3 0.68 3 0 3 C0 2.01 0 1.02 0 0 Z " fill="#161616" transform="translate(145,550)"/>
<path d="M0 0 C0.33 1.32 0.66 2.64 1 4 C0.01 4.495 0.01 4.495 -1 5 C-1.72159424 6.64363134 -2.39351421 8.31050386 -3 10 C-3.66 9.67 -4.32 9.34 -5 9 C-4.42647107 5.12867972 -2.51295648 2.91827204 0 0 Z " fill="#191919" transform="translate(250,544)"/>
<path d="M0 0 C0.33 0 0.66 0 1 0 C1 1.65 1 3.3 1 5 C1.66 5.33 2.32 5.66 3 6 C2.34 6.66 1.68 7.32 1 8 C-0.32 7.34 -1.64 6.68 -3 6 C-2.01 4.02 -1.02 2.04 0 0 Z " fill="#151515" transform="translate(745,523)"/>
<path d="M0 0 C1.32 1.65 2.64 3.3 4 5 C2 7 2 7 -1 8 C-0.67 5.36 -0.34 2.72 0 0 Z " fill="#1D1D1D" transform="translate(351,446)"/>
<path d="M0 0 C0.99 0.99 1.98 1.98 3 3 C2.67 3.99 2.34 4.98 2 6 C1.01 6.33 0.02 6.66 -1 7 C-1.625 5.1875 -1.625 5.1875 -2 3 C-1.34 2.01 -0.68 1.02 0 0 Z " fill="#191919" transform="translate(818,425)"/>
<path d="M0 0 C1.175625 0.5259375 1.175625 0.5259375 2.375 1.0625 C3.674375 1.5265625 3.674375 1.5265625 5 2 C5.66 1.67 6.32 1.34 7 1 C7.33 1.99 7.66 2.98 8 4 C6.35 4.33 4.7 4.66 3 5 C2.01 3.35 1.02 1.7 0 0 Z " fill="#151515" transform="translate(102,524)"/>
<path d="M0 0 C0.66 0.99 1.32 1.98 2 3 C1.34 4.32 0.68 5.64 0 7 C-0.99 6.67 -1.98 6.34 -3 6 C-2 4 -1 2 0 0 Z " fill="#090909" transform="translate(550,485)"/>
<path d="M0 0 C0 1.32 0 2.64 0 4 C-1.32 4.33 -2.64 4.66 -4 5 C-4 3.68 -4 2.36 -4 1 C-2 0 -2 0 0 0 Z " fill="#060606" transform="translate(294,479)"/>
<path d="M0 0 C0.33 0 0.66 0 1 0 C1.3125 2.3125 1.3125 2.3125 1 5 C-1.5 6.8125 -1.5 6.8125 -4 8 C-2.87548273 5.0280615 -1.77706209 2.66559313 0 0 Z " fill="#ECECEC" transform="translate(318,443)"/>
<path d="M0 0 C2.31 0 4.62 0 7 0 C7 0.66 7 1.32 7 2 C5.35 2.66 3.7 3.32 2 4 C2 3.34 2 2.68 2 2 C1.34 2 0.68 2 0 2 C0 1.34 0 0.68 0 0 Z " fill="#101010" transform="translate(121,433)"/>
<path d="M0 0 C2.31 0 4.62 0 7 0 C7 0.66 7 1.32 7 2 C5.02 2.99 5.02 2.99 3 4 C2.01 2.68 1.02 1.36 0 0 Z " fill="#020202" transform="translate(148,552)"/>
<path d="M0 0 C1.485 0.99 1.485 0.99 3 2 C2.67 3.32 2.34 4.64 2 6 C1.01 6 0.02 6 -1 6 C-1.042721 4.33388095 -1.04063832 2.66617115 -1 1 C-0.67 0.67 -0.34 0.34 0 0 Z " fill="#050505" transform="translate(259,531)"/>
<path d="M0 0 C1.485 0.99 1.485 0.99 3 2 C2.67 3.32 2.34 4.64 2 6 C1.01 5.67 0.02 5.34 -1 5 C-0.67 3.35 -0.34 1.7 0 0 Z " fill="#080808" transform="translate(101,454)"/>
<path d="M0 0 C0.99 0.33 1.98 0.66 3 1 C3 1.99 3 2.98 3 4 C2.34 4 1.68 4 1 4 C1 4.66 1 5.32 1 6 C0.34 5.67 -0.32 5.34 -1 5 C-0.67 3.35 -0.34 1.7 0 0 Z " fill="#040404" transform="translate(787,454)"/>
<path d="M0 0 C0 0.99 0 1.98 0 3 C-1.65 3 -3.3 3 -5 3 C-5.33 2.01 -5.66 1.02 -6 0 C-3.50907189 -1.24546405 -2.58919267 -0.7767578 0 0 Z " fill="#060606" transform="translate(156,422)"/>
</svg>
